<svg width="187" height="153" viewBox="0 0 187 153" fill="none" xmlns="http://www.w3.org/2000/svg">
<path d="M151.906 71.1719C153.083 70.4614 154.155 69.5448 154.803 68.3416C155.798 66.4967 155.647 64.2415 155.152 62.2041C153.543 55.5955 148.618 50.1136 142.71 46.7415C137.018 43.4912 130.469 42.0309 123.935 41.4048C122.572 39.6855 120.91 38.2978 118.831 37.5539L114.843 36.6785C110.864 36.1008 106.85 35.788 102.829 35.7423C100.095 40.1055 98.405 45.1007 97.3019 50.1489C96.6385 53.1833 96.1694 56.2962 96.4442 59.3895C96.719 62.4828 97.7887 65.58 99.8869 67.8706C102.613 70.8481 106.837 72.1631 110.878 71.9924C114.92 71.8216 118.782 70.2867 122.302 68.3063C122.798 68.0276 123.359 67.7273 123.911 67.8706C124.347 67.9825 124.663 68.3436 124.961 68.6792C126.629 70.5375 128.587 72.1136 130.759 73.3467C131.106 71.8684 131.34 70.3658 131.46 68.852C132.202 69.374 132.963 69.8687 133.756 70.3221C139.268 73.4723 146.483 74.4752 151.906 71.1719Z" fill="#AFAA96"/>
<path d="M65.8134 53.3423C67.4131 49.5757 69.2325 45.713 72.0942 42.8572C64.6158 44.3422 57.5996 47.5903 51.6286 52.3315C48.5549 54.779 45.703 57.7388 44.4076 61.4465C44.0956 62.3395 43.8796 63.3189 44.1603 64.2218C44.441 65.1247 45.1417 65.7783 45.8974 66.3102C49.6266 68.9324 54.7612 68.7676 58.9575 67.0011C59.9944 66.5617 60.9964 66.044 61.9546 65.4525C62.6416 61.3169 64.1686 57.1873 65.8134 53.3423Z" fill="#AFAA96"/>
<path d="M115.037 66.0688C115.878 66.7855 116.401 67.8059 116.492 68.907C116.587 70.0409 116.296 71.1736 115.667 72.122C114.274 74.281 111.742 75.2859 109.281 75.6117C106.505 75.9788 103.646 75.7216 100.925 75.1112C99.531 74.7944 98.1588 74.3879 96.8171 73.8943C96.1635 73.6549 95.5256 73.3801 94.8759 73.1269C94.5952 72.9998 94.2832 72.9582 93.979 73.0072C93.6661 73.105 93.3712 73.2528 93.1055 73.4448C91.8337 74.2044 90.4048 74.6461 88.9622 74.9542C88.2359 75.1112 87.4999 75.2329 86.7658 75.3468C86.4371 75.4114 86.1048 75.4566 85.7707 75.4822C85.5745 75.4822 85.1976 75.4979 85.1054 75.2663C85.0716 75.1595 84.9792 75.0818 84.8681 75.0671C84.7571 75.0524 84.6476 75.1032 84.5872 75.1976C84.3104 75.6686 83.6176 75.6785 83.1387 75.7197C82.5103 75.7769 81.8794 75.7998 81.2485 75.7884C79.9774 75.7842 78.7179 75.546 77.5331 75.0857C75.5467 74.2731 73.7744 72.4105 73.6841 70.1788C73.6232 68.7205 74.3259 67.3878 75.058 66.1728C75.1264 66.0385 75.078 65.8741 74.9479 65.7981C74.8177 65.7221 74.6508 65.7607 74.5673 65.8863C73.8392 67.1071 73.1542 68.4379 73.1208 69.8903C73.1177 71.0704 73.4971 72.2198 74.2023 73.1661C75.7725 75.3487 78.3888 76.2378 80.9934 76.3399C81.7965 76.3678 82.6005 76.3395 83.3997 76.2555C84.0317 76.1927 84.7305 76.073 85.0798 75.4704L84.5617 75.4037C84.7756 75.9317 85.3114 76.0651 85.8375 76.0318C86.5137 75.9673 87.1859 75.8664 87.8512 75.7295C89.2317 75.5217 90.5855 75.1643 91.8886 74.6637C92.5312 74.3856 93.1542 74.0643 93.7532 73.702C94.0501 73.5163 94.4226 73.4999 94.7346 73.6588C95.0703 73.7923 95.4 73.9375 95.7376 74.071C97.1504 74.6336 98.5988 75.1024 100.073 75.4743C102.925 76.1888 105.918 76.5205 108.853 76.2163C111.506 75.9395 114.201 75.0131 115.868 72.8168C116.695 71.7608 117.124 70.4462 117.077 69.1052C117.01 67.796 116.464 66.5006 115.442 65.6547C115.163 65.4231 114.759 65.8215 115.049 66.0472L115.037 66.0688Z" fill="black"/>
<path d="M102.093 59.0049C101.655 59.1129 101.214 58.7498 101.07 58.3238C100.927 57.8979 101 57.4308 101.07 56.9872C101.216 56.1354 101.375 55.2502 101.881 54.5495C102.16 54.1569 102.599 53.8331 103.068 53.8998C103.724 53.994 104.022 54.7556 104.168 55.4013C104.454 56.6872 104.629 57.9952 104.692 59.3111C104.756 60.685 104.692 62.0806 104.299 63.3956C104.158 63.8568 103.94 64.3456 103.504 64.5517C103.023 64.7793 102.425 64.5634 102.052 64.1827C101.679 63.8019 101.481 63.2896 101.292 62.7911C101.037 62.1198 100.778 61.4171 100.88 60.7027C100.982 59.9883 101.589 59.3013 102.303 59.37" fill="black"/>
<path d="M102.016 58.732C101.675 58.7967 101.398 58.4572 101.318 58.1608C101.206 57.7526 101.306 57.309 101.377 56.9027C101.504 56.1745 101.647 55.4188 102.064 54.7927C102.242 54.5219 102.519 54.2314 102.849 54.1804C103.135 54.1572 103.408 54.306 103.543 54.5592C103.936 55.1598 104.009 55.988 104.132 56.677C104.411 58.3473 104.55 60.0981 104.346 61.7801C104.295 62.2088 104.213 62.6332 104.101 63.05C104.029 63.3898 103.896 63.7137 103.708 64.0059C103.247 64.6379 102.444 64.2905 102.065 63.7586C101.839 63.4055 101.659 63.0249 101.53 62.6261C101.344 62.1934 101.216 61.738 101.149 61.2718C101.08 60.5632 101.439 59.5936 102.299 59.6466C102.664 59.6702 102.662 59.1029 102.299 59.0813C101.457 59.0264 100.764 59.7663 100.615 60.5534C100.419 61.5348 100.862 62.5692 101.251 63.4504C101.598 64.2355 102.281 65.0206 103.229 64.9107C104.177 64.8008 104.495 63.8096 104.69 63.0245C105.198 60.9617 105.031 58.7359 104.69 56.6593C104.552 55.8134 104.458 54.7711 103.893 54.0822C103.328 53.3933 102.385 53.5405 101.816 54.1666C101.096 54.9517 100.907 56.1097 100.752 57.1284C100.672 57.6583 100.629 58.2491 100.939 58.7163C101.189 59.1362 101.672 59.358 102.154 59.2737C102.511 59.205 102.35 58.6594 102.003 58.7261L102.016 58.732Z" fill="black"/>
<path d="M83.9591 59.0049C83.5214 59.1129 83.0798 58.7498 82.9365 58.3238C82.7933 57.8979 82.8659 57.4308 82.9365 56.9872C83.0818 56.1354 83.2408 55.2502 83.7472 54.5495C84.0259 54.1569 84.4655 53.8331 84.9346 53.8998C85.5902 53.994 85.8905 54.7556 86.0338 55.4013C86.32 56.6872 86.4953 57.9952 86.5578 59.3111C86.6245 60.685 86.5578 62.0806 86.1653 63.3956C86.0259 63.8568 85.808 64.3456 85.3802 64.5517C84.8973 64.7793 84.3006 64.5634 83.9277 64.1827C83.5548 63.8019 83.3546 63.2896 83.1662 62.7911C82.911 62.1198 82.6519 61.4171 82.756 60.7027C82.86 59.9883 83.4626 59.3013 84.177 59.37" fill="black"/>
<path d="M83.8826 58.732C83.541 58.7967 83.2643 58.4572 83.1838 58.1608C83.0719 57.7526 83.172 57.309 83.2427 56.9027C83.3703 56.1745 83.5155 55.4188 83.9297 54.7927C84.1102 54.5219 84.387 54.2314 84.7246 54.1804C85.0109 54.1572 85.2837 54.306 85.4194 54.5592C85.8119 55.1598 85.8846 55.988 86.0082 56.677C86.3206 58.3593 86.3933 60.0774 86.2241 61.7801C86.1719 62.2086 86.0899 62.6329 85.9788 63.05C85.9068 63.3898 85.7738 63.7136 85.5862 64.0059C85.125 64.6379 84.3222 64.2905 83.9454 63.7586C83.7184 63.4056 83.5377 63.025 83.4076 62.6261C83.2225 62.193 83.0945 61.7378 83.0268 61.2718C82.9581 60.5632 83.3192 59.5936 84.177 59.6466C84.542 59.6702 84.5401 59.1029 84.177 59.0813C83.3369 59.0264 82.6441 59.7663 82.4929 60.5534C82.3065 61.5348 82.7402 62.5692 83.1308 63.4504C83.4763 64.2355 84.1593 65.0206 85.1073 64.9107C86.0553 64.8008 86.3753 63.8096 86.5676 63.0245C87.0779 60.9617 86.9111 58.7359 86.5676 56.6593C86.4322 55.8134 86.336 54.7711 85.7707 54.0822C85.2054 53.3933 84.2633 53.5405 83.6941 54.1666C82.9758 54.9517 82.7873 56.1097 82.6303 57.1284C82.5498 57.6583 82.5067 58.2491 82.8168 58.7163C83.0669 59.1362 83.5503 59.358 84.0317 59.2737C84.3909 59.205 84.2378 58.6594 83.8806 58.7261L83.8826 58.732Z" fill="black"/>
<path d="M95.9672 92.4797C94.3715 92.3737 92.7777 92.2304 91.1898 92.0675C87.2486 91.6749 83.276 91.145 79.4702 90.0871C73.2365 109.232 72.4652 133.531 74.9559 146.418C75.0501 146.907 75.1522 147.433 74.9363 147.884C74.6379 148.526 73.8254 148.793 73.4937 149.419C73.1011 150.173 73.5977 151.154 74.3455 151.568C75.0933 151.983 75.9942 151.981 76.848 151.961C80.7264 151.869 84.5963 151.608 88.4577 151.176C89.5549 151.054 90.6992 150.901 91.6079 150.273C93.6433 148.86 93.5589 145.876 93.2547 143.415C91.1329 126.327 89.1211 108.209 95.9672 92.4797Z" fill="#AFAA96"/>
<path d="M114.778 90.6012C113.186 91.156 111.555 91.591 109.899 91.9025C106.228 92.5954 102.491 92.7445 98.7524 92.617C92.4284 111.428 95.7081 133.752 98.1498 146.412C98.244 146.901 98.3461 147.427 98.1302 147.878C97.8318 148.52 97.0173 148.787 96.6875 149.413C96.295 150.167 96.7916 151.148 97.5394 151.562C98.2872 151.977 99.1881 151.975 100.042 151.955C103.92 151.863 107.79 151.602 111.652 151.17C112.749 151.048 113.893 150.895 114.802 150.267C116.837 148.854 116.753 145.87 116.449 143.409C114.49 127.534 110.015 106.325 114.778 90.6012V90.6012Z" fill="#AFAA96"/>
<path d="M95.9672 92.2047C91.6491 91.9182 87.3114 91.4942 83.0699 90.6542C81.8923 90.4186 80.7146 90.1458 79.5468 89.8239C79.3965 89.7846 79.242 89.8714 79.1974 90.0202C77.7765 94.4484 76.6397 98.9627 75.794 103.536C74.9304 108.123 74.3102 112.761 73.9019 117.406C73.5192 121.801 73.3249 126.213 73.3504 130.624C73.3542 134.445 73.5717 138.262 74.002 142.059C74.0975 142.871 74.2081 143.683 74.3337 144.494C74.4593 145.307 74.6615 146.12 74.7537 146.936C74.8065 147.228 74.7702 147.529 74.6497 147.8C74.5203 148.01 74.3509 148.193 74.1512 148.338C73.794 148.632 73.4053 148.907 73.2051 149.339C72.7831 150.241 73.3582 151.301 74.161 151.778C75.1895 152.383 76.4986 152.243 77.639 152.21C79.0456 152.167 80.4529 152.101 81.8609 152.014C83.2466 151.93 84.631 151.824 86.0141 151.696C87.2938 151.578 88.6069 151.5 89.8689 151.246C90.9111 151.034 91.8964 150.585 92.5716 149.741C93.1352 148.992 93.4883 148.107 93.5942 147.176C93.9043 145.017 93.4568 142.808 93.2017 140.671C92.5952 135.648 92.0417 130.616 91.7492 125.558C91.4568 120.553 91.4175 115.52 91.869 110.523C92.3145 105.583 93.2566 100.676 94.8936 95.987C95.294 94.842 95.7343 93.7141 96.2145 92.6032C96.3578 92.2734 95.871 91.9829 95.7258 92.3186C93.811 96.8026 92.4913 101.518 91.8003 106.344C91.0799 111.177 90.8817 116.074 90.9936 120.955C91.1074 125.96 91.5392 130.953 92.0849 135.929C92.3557 138.384 92.6541 140.836 92.9563 143.291C93.1801 145.113 93.4058 147.27 92.4421 148.932C91.8925 149.88 90.9739 150.406 89.9258 150.65C88.6756 150.938 87.3546 150.999 86.0788 151.117C83.331 151.372 80.5799 151.542 77.8255 151.627C76.7302 151.66 75.2994 151.878 74.3416 151.211C73.9163 150.93 73.6526 150.461 73.633 149.951C73.6487 149.439 74.0589 149.129 74.4181 148.834C74.7773 148.54 75.1384 148.212 75.2719 147.737C75.4172 147.221 75.2857 146.673 75.1895 146.167C75.0482 145.423 74.9245 144.675 74.8126 143.925C74.3104 140.347 74.0233 136.742 73.9529 133.13C73.843 128.9 73.9529 124.663 74.2297 120.441C74.5359 115.848 75.0521 111.267 75.7999 106.725C76.5303 102.199 77.5245 97.7198 78.7774 93.3098C79.0797 92.2525 79.4009 91.2005 79.7411 90.1537L79.3937 90.3499C83.5606 91.5021 87.8708 92.0242 92.1653 92.4383C93.4293 92.56 94.6973 92.668 95.9652 92.7523C96.3303 92.7936 96.3283 92.2185 95.9672 92.2047Z" fill="black"/>
<path d="M114.702 90.3285C110.723 91.7024 106.531 92.2756 102.336 92.3619C101.145 92.3874 99.9515 92.3737 98.7602 92.3344C98.6331 92.3367 98.522 92.4208 98.4854 92.5425C96.9707 97.1622 95.9425 101.927 95.4176 106.761C94.8882 111.543 94.7045 116.358 94.868 121.167C94.9995 125.615 95.3783 130.055 95.9397 134.469C96.4127 138.186 97.0133 141.886 97.7062 145.568C97.7925 146.024 97.9024 146.483 97.9594 146.942C98.0121 147.234 97.9758 147.535 97.8553 147.806C97.7258 148.016 97.5556 148.199 97.3548 148.344C96.9799 148.656 96.5697 148.942 96.3833 149.409C96.221 149.834 96.2373 150.306 96.4284 150.718C96.8759 151.763 97.9515 152.153 99.0134 152.226C99.6395 152.269 100.271 152.226 100.896 152.214C101.624 152.193 102.35 152.163 103.076 152.13C105.861 151.999 108.641 151.784 111.416 151.486C112.594 151.356 113.846 151.237 114.865 150.575C115.643 150.05 116.224 149.281 116.517 148.389C117.173 146.514 116.87 144.434 116.625 142.514C116.344 140.324 116.036 138.135 115.726 135.949C115.059 131.256 114.378 126.561 113.858 121.848C113.328 117.055 112.951 112.231 112.945 107.41C112.945 102.835 113.261 98.2306 114.254 93.7535C114.484 92.7191 114.751 91.6907 115.057 90.6759C115.163 90.3246 114.615 90.1754 114.511 90.5248C113.235 94.7467 112.66 99.1609 112.462 103.554C112.246 108.264 112.462 112.987 112.876 117.685C113.29 122.384 113.901 127.048 114.556 131.711C114.868 133.945 115.192 136.178 115.504 138.414C115.793 140.471 116.14 142.536 116.29 144.612C116.421 146.418 116.368 148.662 114.835 149.912C113.881 150.683 112.588 150.805 111.414 150.932C110.048 151.08 108.68 151.211 107.31 151.325C105.94 151.439 104.566 151.525 103.188 151.582C101.869 151.643 100.531 151.745 99.2096 151.694C98.2283 151.657 96.819 151.246 96.8249 150.01C96.8249 149.504 97.2174 149.19 97.5845 148.899C97.9515 148.609 98.3362 148.267 98.4716 147.776C98.6188 147.246 98.4814 146.683 98.3794 146.157C98.3048 145.765 98.2322 145.372 98.1576 144.979C98.0045 144.151 97.8547 143.322 97.7081 142.491C97.3915 140.633 97.0971 138.779 96.8249 136.93C96.2223 132.712 95.7807 128.471 95.5491 124.215C95.2795 119.548 95.3123 114.867 95.6472 110.203C95.9798 105.406 96.7724 100.651 98.0143 96.0048C98.3179 94.8926 98.6535 93.7888 99.0212 92.6936L98.7484 92.9017C102.984 93.041 107.265 92.8369 111.404 91.8732C112.569 91.6019 113.719 91.2691 114.849 90.8761C115.196 90.7564 115.049 90.2088 114.702 90.3285Z" fill="black"/>
<path d="M141.379 13.9008C143.15 9.93605 145.063 6.04064 147.119 2.21458C147.694 1.14488 148.728 -0.0975455 149.866 0.353888C150.514 0.612971 150.826 1.33526 151.001 2.02223C151.601 4.40158 151.322 6.91742 150.216 9.10777C150.035 9.46303 149.798 9.83595 149.415 9.94783C149.032 10.0597 148.534 9.70641 148.669 9.33152C150.092 8.13424 151.554 6.91341 153.303 6.28337C155.052 5.65332 157.178 5.72791 158.581 6.9507C159.984 8.1735 160.206 10.6917 158.73 11.8242C158.521 12.0125 158.244 12.1075 157.963 12.0872C157.352 11.9852 157.274 11.0156 157.767 10.6309C158.259 10.2462 158.962 10.3325 159.533 10.57C161.136 11.2349 162.162 12.8206 162.111 14.5553C162.061 16.29 160.944 17.8133 159.305 18.3837C159.144 17.2061 160.903 16.5132 161.857 17.2316C162.811 17.95 162.915 19.3671 162.552 20.4976C161.992 22.2386 160.556 23.587 158.936 24.4369C157.317 25.2867 155.515 25.7048 153.733 26.115L144.812 28.1602C144.208 28.2996 143.305 28.225 143.301 27.6028" fill="#AFAA96"/>
<path d="M48.657 32.7334C45.7845 29.5237 43.3311 25.9622 41.3555 22.1346C40.3368 20.1542 39.4399 18.0285 39.4281 15.8008C39.4163 13.573 40.4703 11.2138 42.4802 10.254C44.5509 9.27265 47.1437 10.0087 48.8316 11.5632C50.5196 13.1177 51.4441 15.3317 52.0506 17.5457C52.1781 18.0128 52.292 18.527 52.1134 18.9706C51.9348 19.4142 51.342 19.7322 50.9495 19.4495C50.7729 19.2967 50.6521 19.0896 50.606 18.8607C49.8621 16.264 51.9112 13.7752 53.8033 11.8478C55.5207 10.099 57.8034 8.19903 60.1312 8.9645C61.2421 9.32957 62.0822 10.2599 62.6985 11.255C64.7221 14.5269 64.7947 18.7272 63.6799 22.4094C62.565 26.0915 60.3648 29.3418 58.0389 32.4057C57.0281 33.7403 55.8799 35.1241 54.2783 35.6069C52.6767 36.0898 50.5589 35.1712 50.447 33.4989" fill="#AFAA96"/>
<path d="M66.0489 53.4796C67.2874 50.563 68.6221 47.6502 70.524 45.0987C71.063 44.3779 71.6533 43.697 72.2905 43.0613C72.3777 42.9689 72.3937 42.8301 72.3297 42.7204C72.2657 42.6106 72.1371 42.556 72.0137 42.5863C67.4338 43.4992 63.0103 45.0707 58.881 47.2518C56.8168 48.3412 54.8356 49.5811 52.9534 50.9614C51.1124 52.2745 49.4034 53.7634 47.8503 55.407C46.3704 57.0204 45.1024 58.8438 44.3036 60.889C43.8796 61.9725 43.5067 63.2247 43.911 64.3709C44.2604 65.3916 45.1044 66.1374 45.9759 66.7086C49.5755 69.1031 54.3352 69.0148 58.2764 67.5741C59.4105 67.1538 60.5059 66.6356 61.5503 66.0255C61.7642 65.9019 62.1391 65.7743 62.2275 65.5309C62.2671 65.3817 62.294 65.2294 62.3079 65.0756C62.3419 64.8937 62.3773 64.7111 62.4139 64.528C62.5395 63.9038 62.6828 63.2816 62.8379 62.6633C63.5018 60.1448 64.3333 57.6734 65.3266 55.2657C65.5661 54.6717 65.8114 54.0789 66.0627 53.4875C66.204 53.1558 65.7153 52.8653 65.5739 53.2009C64.2746 56.2608 63.0813 59.3757 62.2687 62.6045C62.039 63.5211 61.8408 64.4475 61.6798 65.3798L61.8094 65.211C58.6945 67.1109 55.1262 68.2984 51.4402 67.9726C49.7365 67.8387 48.0861 67.3164 46.6157 66.4456C45.8797 65.9981 45.1338 65.4642 44.6844 64.7046C44.1741 63.8508 44.2683 62.8635 44.5411 61.9567C45.5637 58.5141 48.1035 55.6916 50.7787 53.405C53.6499 50.9713 56.8079 48.8977 60.1823 47.2302C63.5614 45.5472 67.1285 44.2716 70.8086 43.4303C71.26 43.3283 71.7134 43.2321 72.1688 43.1418L71.8921 42.6668C69.6251 44.9416 68.0313 47.77 66.6908 50.669C66.2982 51.509 65.9331 52.3569 65.572 53.2088C65.4209 53.5248 65.9057 53.8152 66.0489 53.4796Z" fill="black"/>
<path d="M155.425 62.1296C153.841 55.7153 149.25 50.4139 143.703 47.0007C140.451 45.0006 136.834 43.611 133.154 42.6669C131.277 42.1926 129.377 41.8178 127.462 41.5442C126.508 41.4055 125.551 41.2865 124.59 41.187C124.401 41.1939 124.212 41.1597 124.037 41.0869C123.891 40.951 123.763 40.7982 123.654 40.6315C123.363 40.2979 123.065 39.976 122.737 39.6737C121.666 38.6629 120.309 37.6737 118.873 37.2733C118.072 37.0515 117.236 36.9141 116.425 36.7374C113.516 36.0995 110.537 35.8248 107.573 35.6344C99.2435 35.09 90.8787 35.7056 82.7187 37.4637C79.1857 38.235 75.6527 39.3813 72.846 41.7523C70.2316 43.9643 68.4298 46.9712 66.9695 50.0272C65.3398 53.3879 63.9621 56.865 62.8477 60.4298C61.7407 64.0531 61.0106 67.8785 61.3148 71.6803C61.5753 75.1844 62.84 78.5391 64.9577 81.343C66.9499 83.9554 69.5721 86.0536 72.4476 87.6238C75.7842 89.4413 79.4644 90.5365 83.1799 91.251C87.1368 92.0145 91.1781 92.4286 95.1959 92.7152C102.88 93.2804 110.863 92.9801 117.936 89.6121C121.008 88.1498 123.846 86.1223 126.056 83.5275C128.392 80.7797 129.982 77.4665 130.881 73.9866C131.313 72.3015 131.599 70.5823 131.736 68.8481L131.311 69.0915C134.91 71.6195 139.087 73.3251 143.523 73.49C145.616 73.587 147.708 73.2716 149.68 72.5616C151.566 71.8609 153.468 70.7657 154.661 69.1052C156.118 67.0796 155.976 64.4476 155.425 62.1335C155.341 61.7782 154.793 61.9372 154.877 62.2846C155.362 64.3122 155.541 66.6027 154.414 68.4555C153.37 70.1729 151.431 71.2956 149.598 71.9885C145.853 73.4056 141.652 73.123 137.905 71.8727C135.655 71.0944 133.53 69.9929 131.597 68.6027C131.401 68.4693 131.187 68.6538 131.169 68.8481C130.879 72.4242 129.982 75.9748 128.313 79.1643C126.71 82.2215 124.401 84.8523 121.577 86.8387C115.554 91.0959 108.083 92.407 100.843 92.3815C96.825 92.3658 92.8072 92.0007 88.8208 91.5297C84.9699 91.0763 81.1151 90.4246 77.4369 89.1744C71.1561 87.035 65.1304 82.7699 62.8575 76.2987C60.3217 69.0817 62.8458 61.2287 65.6329 54.4807C66.9263 51.3403 68.3003 48.1842 70.2846 45.4187C71.2451 44.0536 72.3958 42.8329 73.7018 41.7935C75.1602 40.6892 76.7846 39.8233 78.5144 39.2282C82.1436 37.9249 86.0651 37.3086 89.8729 36.8061C97.9621 35.7383 106.158 35.7647 114.24 36.8847C115.016 36.9926 115.775 37.181 116.541 37.3498C117.271 37.5088 118.029 37.6285 118.747 37.8327C120.266 38.2645 121.679 39.3813 122.757 40.4942C123.032 40.7788 123.295 41.083 123.542 41.3794C123.658 41.5207 123.721 41.6384 123.893 41.6895C124.123 41.7339 124.356 41.7575 124.59 41.7601C125.554 41.8596 126.516 41.9806 127.475 42.1232C131.205 42.6767 134.904 43.5639 138.406 44.981C144.6 47.4894 150.206 51.8506 153.254 57.9057C153.957 59.3011 154.5 60.7714 154.873 62.2886C154.966 62.634 155.511 62.4848 155.425 62.1296Z" fill="black"/>
<path d="M97.4844 70.3044L95.3352 61.472C95.0898 60.4632 94.8268 59.417 94.1693 58.6123C93.0152 57.1991 90.9877 56.9106 89.1623 56.9047C85.9101 56.8931 82.6805 57.4463 79.6175 58.5397C78.7833 58.838 77.8785 59.2581 77.5605 60.0863C77.3407 60.6536 77.4506 61.2895 77.5605 61.8862C79.1234 69.8821 81.161 77.7778 83.6627 85.5315C83.9826 86.5246 84.3457 87.5688 85.1564 88.2263C85.808 88.7543 86.6598 88.9565 87.4842 89.1096C90.1667 89.6046 92.9023 89.7471 95.6218 89.5335C96.9015 89.4315 98.244 89.2234 99.2528 88.4265C100.515 87.4275 100.982 85.6787 100.823 84.0712C100.664 82.4637 99.9987 80.9641 99.3333 79.498" fill="#AFAA96"/>
<path d="M97.7593 70.2219C97.0232 67.1973 96.299 64.1688 95.5512 61.1461C95.2469 59.9214 94.8367 58.675 93.8181 57.8565C92.9191 57.1362 91.7886 56.8281 90.662 56.6946C89.3314 56.5657 87.9911 56.5723 86.6619 56.7142C85.1917 56.8423 83.7336 57.0838 82.3006 57.4365C81.5809 57.6132 80.8691 57.8186 80.1651 58.0528C79.5675 58.2273 78.9894 58.4628 78.4399 58.7555C77.948 59.0149 77.555 59.4286 77.3211 59.9331C77.0601 60.5671 77.168 61.258 77.2936 61.9077C78.4477 67.8862 79.8923 73.8137 81.5842 79.6608C81.999 81.1001 82.4302 82.5316 82.8777 83.9553C83.0936 84.6481 83.3056 85.3449 83.5411 86.0299C83.7218 86.6158 83.9813 87.1744 84.3124 87.6904C84.661 88.2025 85.1429 88.6097 85.706 88.868C86.3137 89.1235 86.9515 89.3002 87.604 89.3941C89.0954 89.6616 90.604 89.8216 92.1183 89.873C93.5596 89.9359 95.0036 89.8827 96.4364 89.714C97.6749 89.555 98.9428 89.1978 99.8319 88.2694C101.665 86.3577 101.28 83.4665 100.407 81.2153C100.16 80.5774 99.879 79.9552 99.5984 79.333C99.4472 79.0013 98.9585 79.2878 99.1077 79.6176C100.103 81.8159 101.241 84.4303 100.138 86.8111C99.6547 87.8577 98.7265 88.6316 97.6101 88.9191C96.3343 89.292 94.9408 89.3116 93.6198 89.3371C92.1985 89.3563 90.7775 89.2796 89.3665 89.1075C88.656 89.0211 87.9455 88.9112 87.2428 88.7679C86.6516 88.6705 86.0829 88.4663 85.5647 88.1654C84.5244 87.498 84.177 86.2026 83.8237 85.0878C83.3854 83.723 82.9627 82.355 82.5558 80.9837C80.9149 75.4644 79.5083 69.883 78.3359 64.2394C78.1867 63.5237 78.0414 62.804 77.9001 62.0804C77.7765 61.4543 77.5802 60.7339 77.8511 60.1176C78.063 59.6348 78.5184 59.3325 78.9738 59.099C79.5486 58.8357 80.1432 58.6178 80.752 58.4473C83.4304 57.6081 86.2202 57.1787 89.027 57.1735C90.1379 57.1735 91.2743 57.252 92.3224 57.6465C93.3876 58.0392 94.2246 58.8827 94.609 59.9508C94.8227 60.5615 94.9984 61.1849 95.1351 61.8174L95.6473 63.9175L96.7112 68.2886L97.2175 70.3789C97.3039 70.7342 97.8515 70.5752 97.7652 70.2278L97.7593 70.2219Z" fill="black"/>
<path d="M63.2482 77.9847C57.7427 82.2242 50.5237 83.5765 44.0132 80.6756C36.2387 77.2113 29.9108 65.3033 32.2367 57.1226C33.5655 52.4571 36.9316 48.0939 36.0385 43.2773C36.0094 43.1107 35.948 42.9514 35.858 42.8082C35.3967 42.1173 34.5174 42.449 33.9266 42.8612C33.1883 43.3817 32.5275 44.0042 31.9639 44.7101C31.8567 44.4598 31.7189 44.2238 31.5536 44.0074C29.568 41.2322 27.2725 38.6923 24.7115 36.4371C24.2665 36.0345 23.6371 35.9072 23.0706 36.1054C22.4249 36.3429 22.3523 36.8905 22.3483 37.389C22.3444 38.815 22.7721 40.2088 23.5751 41.3872C22.4756 40.499 21.1474 39.9397 19.7438 39.7738C19.2596 39.7231 18.7807 39.9083 18.4567 40.2716C18.1327 40.6349 18.0032 41.1318 18.1088 41.607C18.3451 42.65 18.8968 43.595 19.6888 44.3136C18.9153 44.0286 18.092 43.9037 17.2687 43.9466C16.5523 43.9858 15.7908 44.1723 15.5022 45.0536C15.3213 45.6576 15.4063 46.31 15.7358 46.8475C16.4385 48.0586 17.7928 48.6651 18.5818 49.7819C19.3453 50.8633 19.4749 52.2726 20.099 53.4404C20.9842 55.095 22.7939 56.1412 23.5358 57.8645C24.0834 59.1363 23.9676 60.577 23.944 61.9607C23.7595 73.4625 31.6165 84.6502 42.498 88.3774C50.9908 91.2882 60.8163 89.4766 68.0137 84.1673C66.0208 82.4524 64.3992 80.3485 63.2482 77.9847Z" fill="black"/>
<path d="M63.1049 77.7393C59.2147 80.7207 54.3255 82.3498 49.4107 81.8414C47.1027 81.6141 44.8678 80.9068 42.8493 79.7648C41.1716 78.7691 39.6591 77.5183 38.3663 76.0572C35.5444 72.9398 33.5472 69.166 32.5566 65.0795C32.0857 63.1926 31.9344 61.2401 32.1091 59.3031C32.3407 57.0558 33.2592 54.9595 34.1543 52.9085C35.1356 50.6454 36.1916 48.3392 36.4291 45.8426C36.487 45.2401 36.487 44.6334 36.4291 44.0309C36.3741 43.4598 36.3368 42.7807 35.8677 42.3803C34.9825 41.6246 33.7676 42.5648 33.0806 43.1398C32.5971 43.5476 32.154 44.0011 31.7577 44.4941L32.2308 44.6198C31.9736 43.9995 31.5222 43.4657 31.1198 42.9338C30.7175 42.4018 30.2817 41.8444 29.8441 41.3164C28.9687 40.2566 28.0468 39.2399 27.0785 38.2663C26.5996 37.7835 26.1102 37.3131 25.6104 36.8551C25.1531 36.4351 24.7016 35.9365 24.0794 35.7756C23.5279 35.6164 22.9333 35.7406 22.4916 36.1073C22.1402 36.4331 22.0637 36.916 22.0578 37.3733C22.0564 38.8492 22.4974 40.2918 23.3238 41.5147L23.7693 41.1712C23.1495 40.6716 22.4589 40.2668 21.7202 39.97C21.3532 39.8234 20.9751 39.706 20.5897 39.6187C20.2303 39.5196 19.8594 39.4687 19.4866 39.4675C18.85 39.5013 18.2791 39.8704 17.9871 40.4371C17.6652 41.075 17.8006 41.7483 18.044 42.3881C18.3542 43.2017 18.8502 43.9317 19.4925 44.5197L19.7673 44.0447C18.9586 43.7528 18.0997 43.626 17.2412 43.6718C16.674 43.7051 16.0851 43.8327 15.671 44.2468C15.1607 44.7552 15.037 45.5442 15.1901 46.2253C15.3491 46.9378 15.8202 47.5384 16.3383 48.033C16.8565 48.5276 17.3923 48.9084 17.8752 49.3932C18.3909 49.9303 18.7757 50.5791 18.9998 51.2892C19.2491 52.0095 19.4415 52.7495 19.7849 53.4364C20.1094 54.051 20.5191 54.6167 21.0018 55.1166C21.9479 56.1529 23.0745 57.1068 23.471 58.5062C23.8891 59.9881 23.6339 61.5897 23.679 63.1089C23.7647 65.792 24.255 68.4468 25.1334 70.9835C26.8944 76.0772 30.0259 80.5868 34.1837 84.0161C36.2437 85.7132 38.5434 87.0962 41.0082 88.1203C43.6965 89.2155 46.5492 89.853 49.448 90.0065C52.4122 90.1658 55.3831 89.8646 58.2549 89.1134C61.1171 88.3729 63.8503 87.2022 66.3611 85.6413C66.9774 85.2586 67.578 84.8562 68.1629 84.4185C68.2378 84.3733 68.288 84.2963 68.299 84.2095C68.3101 84.1227 68.281 84.0356 68.2198 83.973C66.2526 82.2672 64.6504 80.1816 63.5092 77.8413C63.3522 77.5116 62.8635 77.7981 63.0185 78.1279C64.1807 80.5109 65.8115 82.6351 67.8135 84.3734L67.8704 83.9278C63.1938 87.3602 57.5859 89.2929 51.7876 89.4706C48.9029 89.564 46.0226 89.1793 43.2634 88.3322C40.762 87.5466 38.3965 86.3801 36.2505 84.8739C34.1101 83.3754 32.189 81.5858 30.5428 79.5568C28.8999 77.5375 27.5378 75.3053 26.4936 72.9207C25.4339 70.5341 24.7284 68.0056 24.3994 65.4151C24.246 64.0863 24.1896 62.7481 24.2306 61.4111C24.2679 59.8861 24.2443 58.3355 23.3846 57.0126C22.6525 55.8899 21.5671 55.0655 20.7742 53.9919C20.355 53.3997 20.0361 52.7425 19.8301 52.0468C19.6348 51.3433 19.3719 50.6604 19.045 50.0075C18.36 48.7828 17.0528 48.1684 16.2167 47.0791C15.7672 46.4903 15.4904 45.6934 15.8241 44.9848C16.0793 44.4451 16.6426 44.2763 17.198 44.239C18.0158 44.1917 18.8347 44.3119 19.6044 44.5923C19.7284 44.6252 19.8593 44.5716 19.9246 44.4611C19.9899 44.3506 19.9738 44.2101 19.885 44.1173C19.2769 43.5632 18.8162 42.8664 18.5445 42.0898C18.3188 41.4303 18.2501 40.6884 18.9056 40.2467C19.1815 40.0723 19.5124 40.0066 19.834 40.0622C20.2731 40.1209 20.7056 40.2214 21.1255 40.3625C21.9433 40.6312 22.7064 41.044 23.3787 41.5814C23.6084 41.7659 24.0186 41.5304 23.8243 41.2379C23.151 40.2544 22.7451 39.1126 22.6466 37.9248C22.6192 37.5323 22.5544 36.9964 22.7821 36.651C23.051 36.2447 23.6712 36.2211 24.0853 36.3782C24.3372 36.4935 24.5654 36.6546 24.7586 36.8531C24.9941 37.0632 25.2257 37.2751 25.4573 37.491C25.9074 37.9111 26.3484 38.3396 26.7802 38.7766C27.6242 39.6298 28.4322 40.5163 29.2042 41.4362C29.6556 41.9727 30.094 42.5203 30.5192 43.079C30.7286 43.3538 30.936 43.6318 31.1414 43.9132C31.3561 44.1801 31.5398 44.4705 31.689 44.7787C31.7617 44.9515 32.0129 45.0908 32.1621 44.9044C32.5775 44.3879 33.0444 43.915 33.5556 43.4931C33.9482 43.1634 34.4251 42.7826 34.9551 42.708C35.6401 42.5981 35.7696 43.2576 35.8383 43.7934C35.9114 44.3793 35.9271 44.971 35.8854 45.5599C35.7186 48.0585 34.6351 50.4001 33.6459 52.6631C32.745 54.7299 31.8362 56.8222 31.5673 59.0794C31.3642 61.0099 31.4843 62.9608 31.9226 64.8518C32.8556 68.9376 34.7703 72.7345 37.5008 75.9139C38.7698 77.4293 40.2529 78.7517 41.9032 79.8394C43.7839 81.0317 45.8829 81.8384 48.078 82.2124C52.875 83.0622 57.8349 81.8885 61.9076 79.2682C62.4179 78.9405 62.9106 78.5911 63.3914 78.2221C63.676 78.0101 63.3954 77.5175 63.1049 77.7393Z" fill="black"/>
<path d="M48.8572 32.537C46.6381 30.0519 44.6661 27.3568 42.9689 24.4898C42.0992 23.059 41.3312 21.5689 40.6706 20.0304C40.0543 18.5289 39.6068 16.9057 39.7206 15.2687C39.7948 13.9332 40.2948 12.6565 41.1475 11.6259C42.044 10.589 43.3685 10.0235 44.7374 10.093C46.1494 10.1756 47.4911 10.7371 48.5412 11.6848C49.6678 12.6897 50.4667 14.0165 51.0319 15.4022C51.3126 16.1 51.5518 16.8137 51.7483 17.5397C51.8583 17.9322 51.9878 18.366 51.874 18.7703C51.8033 19.0255 51.5501 19.2963 51.2596 19.2688C50.9259 19.2374 50.8514 18.7369 50.7984 18.4837C50.7298 18.1362 50.71 17.7808 50.7395 17.4278C50.8123 16.7123 51.03 16.0191 51.3793 15.3904C52.1036 14.0165 53.187 12.8506 54.2823 11.7652C55.352 10.7112 56.5846 9.61798 58.0664 9.21365C61.2932 8.33041 63.1519 12.0459 63.7584 14.6151C64.4788 17.6456 64.0214 20.841 62.9125 23.7184C61.7348 26.7548 59.882 29.4771 57.933 32.0601C57.0615 33.2181 56.1233 34.4448 54.7926 35.0984C53.7288 35.6225 52.3843 35.5793 51.4402 34.808C51.0303 34.4901 50.7679 34.0186 50.714 33.5027C50.6845 33.1435 50.1251 33.1396 50.1467 33.5027C50.2527 34.8138 51.3754 35.703 52.6061 35.9444C54.0683 36.2349 55.4128 35.5774 56.4786 34.6097C57.0639 34.0546 57.5992 33.4491 58.0782 32.8001C58.616 32.1013 59.1394 31.3934 59.6484 30.6764C60.6845 29.2411 61.6147 27.7324 62.4316 26.162C63.9704 23.1394 64.9243 19.7713 64.6103 16.3581C64.4798 14.7205 64.0212 13.1258 63.2619 11.6691C62.5278 10.2951 61.4247 8.9212 59.8251 8.58753C58.2254 8.25386 56.6552 9.04682 55.405 10.0125C54.0798 11.0544 52.8926 12.2608 51.872 13.6024C50.9161 14.8487 50.0761 16.362 50.1723 17.9852C50.2115 18.629 50.3489 19.6692 51.1242 19.8184C51.8995 19.9676 52.4432 19.2414 52.4863 18.5564C52.4865 18.1193 52.4128 17.6853 52.2685 17.2727C52.1559 16.8723 52.0323 16.4758 51.8975 16.0833C51.6302 15.2981 51.298 14.5365 50.9044 13.8065C50.1408 12.4149 49.0751 11.1568 47.6756 10.3776C46.3625 9.64546 44.7825 9.3059 43.3007 9.66116C41.8718 10.0027 40.7157 11.0096 40.017 12.2814C38.3133 15.3845 39.438 18.9273 40.9081 21.8754C42.5263 25.093 44.4859 28.1272 46.7531 30.9256C47.3053 31.61 47.8732 32.2799 48.4568 32.9355C48.7002 33.2083 49.0986 32.8059 48.8494 32.5429L48.8572 32.537Z" fill="black"/>
<path d="M135.167 28.594L132.79 23.4241C131.903 21.4947 131.012 19.2336 131.954 17.3278C132.543 16.1246 133.756 15.365 134.92 14.6879C135.821 14.1677 136.753 13.6594 137.776 13.471C138.798 13.2825 139.945 13.471 140.692 14.1933C141.266 14.7448 141.536 15.5319 141.778 16.2895C142.644 19.0327 143.336 21.8281 143.849 24.6587C144.188 26.5292 144.392 28.6431 143.242 30.1544C142.092 31.6657 140.007 32.0327 138.119 32.0975C137.093 32.1309 135.727 31.7992 135.707 30.7726" fill="black"/>
<path d="M135.411 28.4507L133.157 23.5438C132.5 22.111 131.784 20.5643 131.839 18.9509C131.862 18.2096 132.109 17.4927 132.547 16.894C132.987 16.3483 133.518 15.8833 134.117 15.52C134.743 15.1089 135.392 14.7334 136.06 14.3954C136.739 14.0179 137.487 13.7797 138.259 13.6947C138.941 13.631 139.626 13.7945 140.206 14.1599C140.818 14.572 141.134 15.2727 141.368 15.946C141.927 17.577 142.371 19.2571 142.775 20.9314C143.192 22.5404 143.516 24.1722 143.745 25.8186C143.911 27.1925 143.913 28.7078 143.089 29.8874C142.322 30.9865 140.985 31.4576 139.717 31.6676C139.081 31.7809 138.435 31.8289 137.79 31.8109C137.283 31.7913 136.687 31.6931 136.286 31.3555C136.106 31.2123 135.997 30.997 135.99 30.7667C135.974 30.4036 135.401 30.4016 135.423 30.7667C135.483 32.1092 137.12 32.4115 138.19 32.3722C139.623 32.3173 141.156 32.1053 142.382 31.3124C145.348 29.3967 144.328 25.3829 143.719 22.531C143.327 20.6755 142.854 18.8397 142.302 17.0235C142.062 16.2286 141.847 15.3846 141.421 14.6682C141.037 14.013 140.423 13.5234 139.699 13.2943C138.074 12.7742 136.439 13.4906 135.04 14.2933C133.736 15.0313 132.292 15.8773 131.656 17.3003C130.934 18.894 131.354 20.6703 131.966 22.2268C132.659 23.9834 133.519 25.6832 134.308 27.4006L134.922 28.7372C135.075 29.067 135.564 28.7804 135.411 28.4507Z" fill="black"/>
<path d="M141.625 14.044C142.541 11.9884 143.497 9.95235 144.492 7.93594C144.983 6.94148 145.482 5.95095 145.99 4.96434C146.483 4.01044 146.956 3.03299 147.503 2.10853C147.88 1.47456 148.496 0.593284 149.313 0.538327C150.233 0.481407 150.587 1.53933 150.759 2.25574C151.213 4.19958 151.071 6.23508 150.351 8.09689C150.201 8.55511 149.985 8.9889 149.709 9.38446C149.609 9.5405 149.447 9.64725 149.264 9.67887C149.154 9.67887 148.918 9.59643 148.926 9.45315C148.926 9.46493 148.909 9.46689 148.995 9.41782C149.041 9.38557 149.084 9.34946 149.125 9.30987L149.386 9.092C149.582 8.9291 149.778 8.76619 149.974 8.60721C150.367 8.28728 150.785 7.97716 151.211 7.6906C152.736 6.66015 154.559 5.90646 156.432 6.2519C157.275 6.3864 158.051 6.79471 158.64 7.41385C159.114 7.95733 159.397 8.64132 159.445 9.3609C159.515 10.0535 159.313 10.7463 158.881 11.2923C158.685 11.5199 158.202 12.0028 157.878 11.7555C157.682 11.6083 157.692 11.2707 157.774 11.0685C157.922 10.7093 158.363 10.6308 158.718 10.6563C159.161 10.7079 159.584 10.8647 159.953 11.1136C160.662 11.569 161.211 12.2347 161.523 13.0175C162.146 14.6256 161.643 16.4518 160.285 17.5142C159.962 17.7711 159.599 17.9733 159.211 18.1128L159.568 18.3856C159.498 17.7595 160.043 17.3591 160.609 17.2512C161.301 17.1197 161.875 17.4887 162.179 18.103C162.938 19.6163 161.983 21.4691 160.936 22.5761C159.602 23.9873 157.784 24.7528 155.947 25.271C153.843 25.8598 151.686 26.2896 149.556 26.7784L145.91 27.6165C145.399 27.7342 144.865 27.9207 144.339 27.9364C144.104 27.9364 143.59 27.9364 143.572 27.6047C143.554 27.2416 142.983 27.2396 143.005 27.6047C143.052 28.5076 144.137 28.5861 144.822 28.4467C146.045 28.2053 147.26 27.8873 148.475 27.6086C150.913 27.0492 153.382 26.5507 155.794 25.901C157.863 25.3436 159.937 24.5055 161.415 22.8941C162.611 21.5869 163.551 19.5083 162.654 17.7909C162.252 16.9587 161.33 16.513 160.428 16.7153C159.643 16.8802 158.903 17.5299 159.001 18.3896C159.019 18.5584 159.168 18.733 159.358 18.6644C161.221 17.9951 162.556 16.0578 162.353 14.0597C162.248 13.0603 161.822 12.1218 161.139 11.3845C160.487 10.6779 159.48 10.0381 158.483 10.091C158.013 10.0867 157.571 10.3171 157.305 10.7054C157.115 11.0342 157.081 11.4306 157.213 11.7869C157.352 12.1887 157.756 12.4356 158.177 12.3757C158.658 12.3129 159.07 11.9498 159.354 11.5906C160.424 10.2167 160.083 8.0753 158.887 6.89568C157.398 5.42558 154.983 5.3667 153.121 6.05955C152.05 6.48155 151.047 7.05747 150.143 7.76911C149.672 8.12633 149.217 8.49925 148.769 8.88003C148.573 9.0449 148.345 9.17837 148.339 9.46885C148.342 9.69503 148.446 9.908 148.624 10.0479C148.974 10.3401 149.482 10.3442 149.837 10.0577C150.259 9.74364 150.485 9.20977 150.689 8.73871C151.155 7.66854 151.44 6.52836 151.533 5.36474C151.631 4.20227 151.527 3.03162 151.227 1.9044C150.983 1.00546 150.442 0.0299735 149.388 0.00053216C148.394 -0.0249836 147.621 0.871995 147.13 1.62962C146.808 2.12619 146.542 2.66595 146.273 3.18804C145.963 3.77687 145.655 4.3657 145.35 4.95452C144.149 7.29282 142.999 9.65728 141.9 12.0479C141.638 12.6237 141.376 13.2007 141.115 13.7791C140.967 14.1088 141.456 14.3973 141.605 14.0656L141.625 14.044Z" fill="black"/>
<path d="M103.993 0.544219C99.8062 0.246728 95.5988 0.46293 91.4647 1.188C89.6354 1.50989 87.7865 1.91029 86.1162 2.7582C84.5804 3.53769 83.2898 4.72636 82.3869 6.19302C80.3339 9.48849 80.2279 13.4847 80.4674 17.2433C80.5341 18.2522 80.591 19.2689 80.7166 20.2719C80.8285 21.159 81.0444 22.0383 81.5488 22.7842C82.385 24.0246 83.7628 24.7626 85.178 25.1395C85.9216 25.3379 86.6841 25.4576 87.4528 25.4967C88.446 25.5497 89.4509 25.4967 90.4381 25.638C92.0756 25.8725 93.502 26.8765 94.2753 28.3388C94.4502 28.6759 94.5853 29.0322 94.6777 29.4006C94.7133 29.5231 94.825 29.6077 94.9525 29.6087C96.1301 29.5164 96.191 28.1582 96.4226 27.273C96.5521 26.7862 96.7405 26.2602 97.2744 26.1091C97.7357 25.9756 98.2558 25.9835 98.7367 25.9383L100.287 25.7931C102.15 25.6164 104.016 25.481 105.875 25.2376C107.445 25.0413 109.016 24.7214 110.46 24.06C111.866 23.4442 113.053 22.4179 113.866 21.1158C114.664 19.8028 115.018 18.2757 115.135 16.7566C115.229 15.157 115.163 13.552 114.939 11.9655C114.743 10.3246 114.533 8.65039 114.009 7.07626C113.505 5.48288 112.51 4.08963 111.167 3.0958C110.461 2.5991 109.716 2.15874 108.941 1.77879C108.136 1.36465 107.322 0.924993 106.448 0.671798C106.005 0.540947 105.546 0.474838 105.084 0.475522C104.937 0.487804 104.823 0.611115 104.823 0.75914C104.823 0.907165 104.937 1.03048 105.084 1.04276C105.999 1.04276 106.851 1.37643 107.665 1.77094C108.429 2.1419 109.19 2.5266 109.92 2.96037C110.659 3.37734 111.333 3.89969 111.92 4.51094C112.444 5.09083 112.868 5.75423 113.173 6.4737C113.82 7.96539 114.056 9.6141 114.274 11.2079C114.505 12.7279 114.621 14.2632 114.621 15.8007C114.596 17.2728 114.394 18.7821 113.767 20.1188C113.141 21.4613 112.1 22.5671 110.798 23.2729C109.471 24.0011 107.969 24.3583 106.48 24.5899C104.751 24.8588 102.998 24.9825 101.257 25.1395L98.352 25.4143C97.6159 25.483 96.8053 25.4731 96.3205 26.1189C96.0124 26.5252 95.8926 27.0414 95.7847 27.5301C95.6924 27.9462 95.6375 28.4644 95.3705 28.8157C95.2731 28.9508 95.1206 29.0357 94.9544 29.0473L95.2273 29.2554C94.8307 27.7526 93.8383 26.4767 92.4794 25.7224C90.8346 24.8176 88.9837 25.0551 87.18 24.9138C85.7354 24.8019 84.2358 24.4133 83.0582 23.5398C82.4798 23.1168 82.0168 22.5553 81.7117 21.9068C81.3035 21.0177 81.2485 20.0108 81.172 19.051C80.8697 15.2766 80.5832 11.2648 82.2044 7.72593C82.8972 6.21854 83.9159 4.84461 85.2879 3.89464C86.7658 2.87204 88.5166 2.35388 90.2576 1.98881C94.2689 1.16427 98.3668 0.838606 102.458 1.0192C102.968 1.0408 103.477 1.07024 103.987 1.10753C104.352 1.13304 104.35 0.565809 103.987 0.540293L103.993 0.544219Z" fill="black"/>
<path d="M88.6009 12.9763C88.2961 13.0487 88.0601 13.2899 87.9943 13.5962C87.9286 13.9025 88.0447 14.2193 88.2929 14.4105C88.541 14.6017 88.877 14.6333 89.1564 14.4915C89.3277 14.3941 89.471 14.2542 89.5725 14.0852C89.7606 13.8334 89.8208 13.5084 89.7354 13.2059C89.6255 12.9154 89.2428 12.729 88.9876 12.9056" fill="#AFAA96"/>
<path d="M88.5264 12.7132C88.1067 12.8294 87.7908 13.1758 87.7138 13.6043C87.6311 14.0498 87.8441 14.498 88.2418 14.7152C88.6412 14.943 89.1395 14.9016 89.496 14.6112C89.9095 14.2832 90.1168 13.7595 90.0396 13.2373C89.9376 12.7329 89.3095 12.3599 88.8443 12.6602C88.757 12.7114 88.7037 12.8053 88.7043 12.9065C88.705 13.0077 88.7596 13.1009 88.8476 13.1509C88.9356 13.2009 89.0436 13.2001 89.1309 13.149C89.1466 13.1416 89.1617 13.1331 89.176 13.1234C89.1191 13.1234 89.1996 13.1019 89.176 13.1234C89.1891 13.1221 89.2022 13.1221 89.2153 13.1234H89.1819C89.1917 13.1225 89.2016 13.1225 89.2114 13.1234H89.2624C89.2506 13.1234 89.2035 13.1097 89.2506 13.1234L89.2899 13.1352C89.3409 13.147 89.2526 13.1097 89.3115 13.1352C89.3403 13.1499 89.3679 13.167 89.3939 13.1863C89.3389 13.147 89.4194 13.2157 89.4332 13.2294C89.4469 13.2432 89.4528 13.2687 89.4332 13.2294C89.4332 13.2432 89.4508 13.2549 89.4567 13.2667C89.4626 13.2785 89.4901 13.3315 89.4724 13.2903C89.4547 13.2491 89.4842 13.3335 89.4861 13.3433C89.4881 13.3531 89.4979 13.3884 89.5018 13.412C89.5018 13.3629 89.5018 13.412 89.5018 13.412C89.5048 13.4584 89.5048 13.5049 89.5018 13.5513C89.5018 13.5356 89.5117 13.5042 89.5018 13.5513C89.4971 13.5745 89.4912 13.5974 89.4842 13.62C89.4842 13.6436 89.4724 13.6652 89.4646 13.6887C89.4567 13.7123 89.4332 13.7712 89.4508 13.728C89.4162 13.8054 89.3748 13.8796 89.3272 13.9498L89.2958 13.9969C89.2428 14.0695 89.3134 13.9772 89.2781 14.0165C89.2454 14.0568 89.21 14.0948 89.1721 14.1303L89.1309 14.1657L89.1113 14.1814L89.0072 14.2403C89.0229 14.2403 89.0602 14.2108 89.0072 14.2403L88.9562 14.256L88.915 14.2658C88.8483 14.2854 88.9739 14.2658 88.9052 14.2658C88.8692 14.2677 88.8332 14.2677 88.7972 14.2658C88.7697 14.2658 88.703 14.252 88.7658 14.2658L88.6598 14.2403L88.6166 14.2265C88.5892 14.2265 88.5617 14.201 88.6049 14.2265C88.5718 14.2115 88.5397 14.1944 88.5087 14.1755L88.4714 14.1519C88.4145 14.1166 88.4969 14.1794 88.4714 14.1519C88.4459 14.1244 88.4223 14.1107 88.4007 14.0872L88.3713 14.0538C88.334 14.0145 88.3929 14.095 88.3576 14.0342L88.3105 13.9498C88.3105 13.9753 88.3379 13.9949 88.3105 13.9498C88.3043 13.9324 88.2991 13.9147 88.2948 13.8968C88.2948 13.8713 88.2771 13.7849 88.281 13.8536C88.281 13.8124 88.281 13.7731 88.281 13.7339C88.281 13.6652 88.281 13.6946 88.281 13.7339C88.283 13.712 88.287 13.6903 88.2928 13.6691C88.3015 13.6332 88.3119 13.5979 88.3242 13.5631C88.3026 13.5945 88.3438 13.4983 88.3242 13.5631C88.3458 13.5317 88.3478 13.516 88.3595 13.4924L88.4204 13.4002C88.385 13.4493 88.4106 13.4159 88.4204 13.4002L88.4734 13.3452L88.5146 13.3079C88.4793 13.3413 88.5048 13.3079 88.5283 13.3079C88.5519 13.3079 88.5911 13.2726 88.6225 13.2549C88.5676 13.2844 88.6088 13.2549 88.6225 13.2549L88.6971 13.2334C88.8392 13.1844 88.9187 13.0334 88.8787 12.8886C88.8387 12.7437 88.6931 12.6549 88.546 12.6858L88.5264 12.7132Z" fill="#AFAA96"/>
<path d="M95.3665 12.9763C95.0617 13.0487 94.8257 13.2899 94.7599 13.5962C94.6942 13.9025 94.8103 14.2193 95.0585 14.4105C95.3066 14.6017 95.6426 14.6333 95.922 14.4915C96.0933 14.3941 96.2366 14.2542 96.3381 14.0852C96.5262 13.8334 96.5864 13.5084 96.501 13.2059C96.3911 12.9154 96.0084 12.729 95.7532 12.9056" fill="#AFAA96"/>
<path d="M95.292 12.7132C94.8723 12.8294 94.5564 13.1758 94.4794 13.6043C94.3967 14.0498 94.6097 14.498 95.0074 14.7152C95.4068 14.943 95.9051 14.9016 96.2616 14.6112C96.6751 14.2832 96.8824 13.7595 96.8052 13.2373C96.7032 12.7329 96.0751 12.3599 95.6099 12.6602C95.5226 12.7114 95.4693 12.8053 95.4699 12.9065C95.4706 13.0077 95.5252 13.1009 95.6132 13.1509C95.7012 13.2009 95.8092 13.2001 95.8965 13.149C95.9122 13.1416 95.9273 13.1331 95.9416 13.1234C95.8847 13.1234 95.9652 13.1019 95.9416 13.1234C95.9547 13.1221 95.9678 13.1221 95.9809 13.1234H95.9456C95.956 13.1225 95.9665 13.1225 95.977 13.1234H96.028C96.0162 13.1234 95.9691 13.1097 96.0162 13.1234L96.0555 13.1352C96.1065 13.147 96.0182 13.1097 96.0771 13.1352C96.1059 13.1499 96.1335 13.167 96.1595 13.1863C96.1045 13.147 96.185 13.2157 96.1987 13.2294C96.2125 13.2432 96.2184 13.2687 96.1987 13.2294L96.2223 13.2667C96.2223 13.2667 96.2557 13.3315 96.238 13.2903C96.2203 13.2491 96.2498 13.3335 96.2517 13.3433C96.2537 13.3531 96.2635 13.3884 96.2674 13.412C96.2674 13.3629 96.2674 13.412 96.2674 13.412C96.2704 13.4584 96.2704 13.5049 96.2674 13.5513C96.2674 13.5042 96.2674 13.5356 96.2674 13.5513C96.2627 13.5745 96.2568 13.5974 96.2498 13.62C96.2498 13.6436 96.238 13.6652 96.2302 13.6887C96.2223 13.7123 96.1987 13.7712 96.2164 13.728C96.1818 13.8054 96.1404 13.8796 96.0928 13.9498L96.0614 13.9969C96.0084 14.0695 96.079 13.9772 96.0437 14.0165C96.011 14.0568 95.9755 14.0948 95.9377 14.1303L95.8965 14.1657L95.8769 14.1814L95.7728 14.2403C95.7885 14.2403 95.8258 14.2108 95.7728 14.2403L95.7218 14.256L95.6806 14.2658C95.6138 14.2854 95.7395 14.2658 95.6708 14.2658C95.6348 14.2677 95.5988 14.2677 95.5628 14.2658C95.5353 14.2658 95.4686 14.252 95.5294 14.2658L95.4254 14.2403L95.3822 14.2265C95.3548 14.2265 95.3273 14.201 95.3705 14.2265C95.3374 14.2115 95.3053 14.1944 95.2743 14.1755L95.237 14.1519C95.1801 14.1166 95.2625 14.1794 95.237 14.1519C95.2115 14.1244 95.1879 14.1107 95.1663 14.0872L95.1369 14.0538C95.0996 14.0145 95.1585 14.095 95.1232 14.0342C95.1075 14.0067 95.0918 13.9772 95.0741 13.9498C95.0741 13.9753 95.1035 13.9949 95.0741 13.9498C95.068 13.9324 95.0627 13.9147 95.0584 13.8968C95.0584 13.8713 95.0407 13.7849 95.0446 13.8536C95.0446 13.8124 95.0446 13.7731 95.0446 13.7339C95.0446 13.6652 95.0446 13.6946 95.0446 13.7339C95.0467 13.712 95.0506 13.6903 95.0564 13.6691C95.0651 13.6332 95.0756 13.5979 95.0878 13.5631C95.0662 13.5945 95.1075 13.4983 95.0878 13.5631C95.1094 13.5317 95.1114 13.516 95.1232 13.4924L95.184 13.4002C95.1487 13.4493 95.1742 13.4159 95.184 13.4002L95.237 13.3452L95.2782 13.3079C95.2429 13.3413 95.2684 13.3079 95.292 13.3079C95.3155 13.3079 95.3548 13.2726 95.3862 13.2549C95.3312 13.2844 95.3724 13.2549 95.3862 13.2549L95.4608 13.2334C95.6028 13.1844 95.6823 13.0334 95.6423 12.8886C95.6024 12.7437 95.4567 12.6549 95.3096 12.6858L95.292 12.7132Z" fill="#AFAA96"/>
<path d="M102.124 12.9763C101.82 13.0487 101.584 13.2899 101.518 13.5962C101.452 13.9025 101.568 14.2193 101.816 14.4105C102.064 14.6017 102.4 14.6332 102.68 14.4915C102.854 14.396 103.001 14.2567 103.106 14.0872C103.294 13.8354 103.354 13.5104 103.269 13.2079C103.159 12.9174 102.776 12.7309 102.521 12.9076" fill="#AFAA96"/>
<path d="M102.058 12.7132C101.638 12.8294 101.322 13.1758 101.245 13.6043C101.162 14.0498 101.375 14.498 101.773 14.7152C102.172 14.943 102.671 14.9016 103.027 14.6112C103.441 14.2832 103.648 13.7595 103.571 13.2373C103.469 12.7329 102.841 12.3599 102.376 12.6602C102.241 12.7394 102.195 12.9129 102.274 13.0479C102.354 13.1828 102.527 13.2281 102.662 13.149C102.678 13.1416 102.693 13.1331 102.707 13.1234C102.65 13.1234 102.731 13.1019 102.707 13.1234C102.72 13.1221 102.733 13.1221 102.746 13.1234H102.711C102.722 13.1225 102.732 13.1225 102.743 13.1234H102.794C102.782 13.1234 102.735 13.1097 102.782 13.1234L102.821 13.1352C102.872 13.147 102.784 13.1097 102.843 13.1352C102.871 13.1499 102.899 13.167 102.925 13.1863C102.87 13.147 102.951 13.2157 102.964 13.2294C102.978 13.2432 102.984 13.2687 102.964 13.2294L102.988 13.2667C102.988 13.2667 103.021 13.3315 103.002 13.2903C102.982 13.2491 103.015 13.3335 103.017 13.3433C103.019 13.3531 103.029 13.3884 103.033 13.412C103.033 13.3629 103.033 13.412 103.033 13.412C103.036 13.4584 103.036 13.5049 103.033 13.5513C103.033 13.5042 103.033 13.5356 103.033 13.5513C103.028 13.5745 103.022 13.5974 103.015 13.62C103.015 13.6436 103.004 13.6652 102.996 13.6887C102.988 13.7123 102.964 13.7712 102.982 13.728C102.947 13.8054 102.906 13.8796 102.858 13.9498L102.825 13.9969C102.774 14.0695 102.843 13.9772 102.809 14.0165C102.777 14.0568 102.741 14.0948 102.703 14.1303L102.662 14.1657L102.64 14.1814C102.607 14.203 102.574 14.2206 102.538 14.2403C102.554 14.2403 102.591 14.2108 102.538 14.2403L102.487 14.256L102.446 14.2658C102.379 14.2854 102.505 14.2658 102.446 14.2658C102.41 14.2677 102.374 14.2677 102.338 14.2658C102.311 14.2658 102.244 14.252 102.305 14.2658L102.201 14.2403L102.158 14.2265C102.13 14.2265 102.103 14.201 102.146 14.2265C102.113 14.2115 102.081 14.1944 102.05 14.1755L102.012 14.1519C101.955 14.1166 102.038 14.1794 102.012 14.1519C101.987 14.1244 101.963 14.1107 101.942 14.0872L101.912 14.0538C101.875 14.0145 101.934 14.095 101.899 14.0342C101.883 14.0067 101.867 13.9772 101.849 13.9498C101.849 13.9753 101.879 13.9949 101.849 13.9498C101.843 13.9324 101.838 13.9147 101.834 13.8968C101.834 13.8713 101.816 13.7849 101.82 13.8536C101.82 13.8124 101.82 13.7731 101.82 13.7339C101.82 13.6652 101.82 13.6946 101.82 13.7339C101.822 13.712 101.826 13.6903 101.832 13.6691C101.84 13.6332 101.851 13.5979 101.863 13.5631C101.842 13.5945 101.883 13.4983 101.863 13.5631C101.885 13.5317 101.887 13.516 101.899 13.4924L101.959 13.4002C101.924 13.4493 101.959 13.4159 101.959 13.4002L102.012 13.3452L102.054 13.3079C102.018 13.3413 102.044 13.3079 102.067 13.3079C102.091 13.3079 102.13 13.2726 102.162 13.2549C102.107 13.2844 102.148 13.2549 102.162 13.2549L102.234 13.2334C102.374 13.1835 102.453 13.034 102.413 12.8904C102.374 12.7468 102.231 12.6576 102.085 12.6858L102.058 12.7132Z" fill="#AFAA96"/>
<path d="M44.1014 11.6377C43.2554 11.725 42.4981 12.2009 42.0523 12.9252C41.6225 13.569 41.2436 14.4817 41.3437 15.2707C41.3748 15.6604 41.5948 16.0102 41.9326 16.207C42.276 16.3816 42.7746 16.2384 42.8256 15.8144C42.8727 15.4219 42.4684 15.149 42.1092 15.2256C41.75 15.3021 41.5361 15.6809 41.4242 16.0107C41.1406 16.9111 41.3327 17.8938 41.9345 18.6211C42.1661 18.9038 42.5646 18.5014 42.3271 18.2286C41.9305 17.7317 41.7694 17.0871 41.8855 16.4621C41.9125 16.3048 41.96 16.1517 42.0268 16.0068C42.0536 15.9352 42.0974 15.8712 42.1544 15.8203C42.1544 15.8203 42.276 15.7614 42.2623 15.7967C42.2878 15.73 42.1387 15.6868 42.1033 15.6593C42.0566 15.6153 42.0169 15.5643 41.9856 15.5082C41.9232 15.3866 41.8896 15.2523 41.8874 15.1157C41.8658 14.4935 42.1622 13.8124 42.488 13.2962C42.8433 12.7348 43.4105 12.2697 44.0936 12.2186C44.4547 12.1912 44.4586 11.6298 44.0936 11.6514L44.1014 11.6377Z" fill="white"/>
<path d="M42.9787 20.1344L43.332 19.9244C43.3948 19.8863 43.441 19.8261 43.4616 19.7556C43.4789 19.6821 43.4692 19.6047 43.4341 19.5378C43.3964 19.4738 43.3351 19.4273 43.2633 19.4082C43.1899 19.3885 43.1117 19.3984 43.0455 19.4357L42.6941 19.6457C42.6308 19.6837 42.5839 19.7438 42.5626 19.8145C42.5514 19.8516 42.5514 19.8912 42.5626 19.9284C42.5633 19.9662 42.5749 20.003 42.596 20.0343C42.6336 20.0976 42.694 20.144 42.7648 20.1639C42.8384 20.1839 42.917 20.1733 42.9827 20.1344H42.9787Z" fill="white"/>
<path d="M43.6028 21.573L43.6715 21.5023C43.6995 21.4778 43.7199 21.4458 43.7304 21.4101C43.7491 21.3773 43.758 21.3398 43.7559 21.3021C43.7575 21.2638 43.7487 21.2259 43.7304 21.1922C43.7203 21.1569 43.6998 21.1254 43.6715 21.1019L43.6146 21.0568C43.5712 21.0311 43.5218 21.0175 43.4713 21.0175L43.3968 21.0293C43.3491 21.0417 43.3057 21.0668 43.2711 21.1019L43.2005 21.1706C43.1737 21.1958 43.154 21.2276 43.1436 21.2629C43.1253 21.2965 43.1165 21.3345 43.118 21.3728C43.1166 21.4104 43.1254 21.4477 43.1436 21.4807C43.1535 21.5162 43.1732 21.5482 43.2005 21.573L43.2594 21.6162C43.3026 21.6422 43.3522 21.6557 43.4026 21.6554L43.4772 21.6456C43.5246 21.6324 43.5678 21.6074 43.6028 21.573Z" fill="white"/>
<path d="M44.3153 23.6242C44.4629 23.612 44.5763 23.4886 44.5763 23.3406C44.5763 23.1926 44.4629 23.0693 44.3153 23.057C44.1678 23.0693 44.0544 23.1926 44.0544 23.3406C44.0544 23.4886 44.1678 23.612 44.3153 23.6242Z" fill="white"/>
<path d="M57.7426 10.7504C57.0448 10.7988 56.3633 10.9835 55.7367 11.2941C55.2106 11.5552 54.6866 11.9399 54.4275 12.4855C54.2653 12.7859 54.2232 13.1367 54.3097 13.4669C54.4018 13.7751 54.6724 13.9959 54.9928 14.0243C55.3009 14.042 55.6326 13.8064 55.5463 13.4649C55.4599 13.1234 55.0733 13.0272 54.7612 13.143C54.1275 13.4009 53.6678 13.9625 53.5403 14.6347C53.4736 14.9919 54.0193 15.145 54.086 14.7859C54.1313 14.5165 54.2494 14.2647 54.4275 14.0577C54.513 13.9587 54.6114 13.8716 54.72 13.7986C54.7762 13.7607 54.8352 13.7272 54.8966 13.6985C54.9302 13.6807 54.9658 13.6669 55.0026 13.6573C55.0497 13.6573 55.0497 13.6514 55.0026 13.6396V13.4885C55.0144 13.4237 55.0517 13.5022 55.0124 13.4571C54.9731 13.4119 54.9496 13.4335 54.93 13.4178C54.873 13.3676 54.8378 13.2972 54.8318 13.2215C54.8172 13.0591 54.8507 12.896 54.928 12.7524C55.0825 12.4608 55.3105 12.2145 55.5895 12.038C56.2359 11.6188 56.9795 11.3734 57.7485 11.3255C58.1116 11.298 58.1136 10.7367 57.7485 10.7583L57.7426 10.7504Z" fill="white"/>
<path d="M54.1586 17.0156C54.3061 17.0033 54.4196 16.88 54.4196 16.732C54.4196 16.584 54.3061 16.4606 54.1586 16.4484C54.0111 16.4606 53.8976 16.584 53.8976 16.732C53.8976 16.88 54.0111 17.0033 54.1586 17.0156Z" fill="white"/>
<path d="M134.378 18.5347C135.003 17.6132 135.943 16.9526 137.022 16.678C137.173 16.6362 137.261 16.4803 137.219 16.3296C137.178 16.1789 137.022 16.0906 136.871 16.1323C135.652 16.4488 134.591 17.2016 133.89 18.2482C133.693 18.5524 134.176 18.837 134.378 18.5347Z" fill="white"/>
<path d="M136.18 19.7203L137.006 19.261C137.072 19.2229 137.12 19.1599 137.14 19.0861C137.159 19.0123 137.148 18.9339 137.108 18.8685C137.027 18.7336 136.853 18.6883 136.716 18.7664L135.89 19.2257C135.802 19.2769 135.749 19.3707 135.75 19.4719C135.75 19.5731 135.805 19.6663 135.893 19.7163C135.981 19.7663 136.089 19.7656 136.176 19.7144L136.18 19.7203Z" fill="white"/>
<path d="M151.138 11.0469C150.567 11.7731 150.722 12.8134 151.362 13.4532C152.118 14.205 153.337 14.1834 154.263 13.8046L154.045 13.2864C153.403 13.7289 152.879 14.3228 152.52 15.0156C152.171 15.6967 151.914 16.5505 152.02 17.3218C152.135 18.1619 152.901 18.6035 153.649 18.8175C154.511 19.0625 155.428 19.0358 156.275 18.7409L156.057 18.2227C154.899 18.7272 153.812 19.893 153.702 21.1983C153.654 21.8612 153.975 22.4966 154.536 22.8529C155.14 23.2749 155.91 23.3436 156.624 23.3593C156.989 23.3593 156.989 22.7999 156.624 22.792C156.035 22.7783 155.395 22.7371 154.881 22.3995C154.406 22.1195 154.167 21.563 154.292 21.0255C154.526 19.9814 155.388 19.1315 156.343 18.7134C156.636 18.5858 156.426 18.0912 156.124 18.1953C155.418 18.4477 154.653 18.4866 153.925 18.3071C153.286 18.1462 152.577 17.8243 152.567 17.0706C152.548 15.785 153.289 14.5033 154.334 13.7771C154.577 13.6083 154.434 13.1294 154.116 13.2609C153.411 13.5494 152.495 13.6534 151.861 13.1392C151.395 12.7624 151.14 11.9616 151.543 11.4493C151.766 11.1666 151.368 10.7623 151.15 11.0567L151.138 11.0469Z" fill="black"/>
<path d="M148.094 3.22546L145.593 8.07542L144.345 10.5014C144.149 10.8763 143.953 11.2492 143.794 11.6398C143.646 11.997 143.472 12.4249 143.517 12.8174C143.558 13.1786 143.872 13.5358 144.267 13.4573C144.433 13.4223 144.573 13.31 144.643 13.1549C144.714 12.9997 144.706 12.8204 144.622 12.6722C144.541 12.5362 144.365 12.4914 144.229 12.5721C143.724 12.9261 143.404 13.4879 143.358 14.103C143.325 14.4661 143.892 14.4642 143.923 14.103C143.961 13.6872 144.175 13.3076 144.512 13.0608L144.119 12.9588C144.119 12.9273 144.119 12.9077 144.143 12.8979C144.114 12.8816 144.091 12.855 144.08 12.8233C144.054 12.7363 144.054 12.6434 144.08 12.5564C144.121 12.3547 144.182 12.1575 144.261 11.9676C144.426 11.565 144.614 11.1719 144.822 10.7899L146.09 8.36198L148.589 3.51202C148.755 3.18817 148.267 2.9016 148.1 3.22546H148.094Z" fill="white"/>
<path d="M152.283 9.70259C152.832 8.74867 153.824 8.13394 154.922 8.06566C155.286 8.04603 155.288 7.47683 154.922 7.49842C153.624 7.57225 152.45 8.29349 151.798 9.41799C151.734 9.55177 151.784 9.71184 151.912 9.78612C152.04 9.86041 152.204 9.82409 152.288 9.70259H152.283Z" fill="white"/>
<path d="M154.673 15.8381C155.223 14.629 156.354 13.7865 157.67 13.6064C157.819 13.5627 157.906 13.4088 157.867 13.259C157.821 13.1109 157.667 13.0245 157.517 13.0628C156.06 13.2799 154.81 14.2162 154.192 15.5535C154.115 15.69 154.159 15.8632 154.292 15.946C154.358 15.9846 154.436 15.9955 154.51 15.9764C154.583 15.9573 154.646 15.9096 154.685 15.844L154.673 15.8381Z" fill="white"/>
<path d="M156.585 20.9039L156.636 20.8332L156.661 20.7979C156.687 20.7645 156.661 20.7881 156.661 20.8077C156.699 20.7626 156.734 20.7174 156.773 20.6723C156.852 20.5835 156.935 20.499 157.023 20.4191L157.154 20.3052L157.189 20.2797C157.146 20.3111 157.17 20.2954 157.189 20.2797L157.26 20.2287C157.357 20.1573 157.458 20.0917 157.562 20.0324C157.688 19.949 157.727 19.7821 157.651 19.6519C157.575 19.5217 157.41 19.4734 157.276 19.5417C156.811 19.8001 156.413 20.1637 156.114 20.6036C156.075 20.669 156.064 20.7474 156.083 20.8212C156.102 20.895 156.15 20.958 156.216 20.9961C156.353 21.0753 156.528 21.0298 156.608 20.8941L156.585 20.9039Z" fill="white"/>
<path d="M149.855 13.4454C150.645 15.7671 150.513 18.3034 149.488 20.531C149.335 20.8587 149.823 21.1473 149.976 20.8156C151.079 18.4593 151.234 15.7692 150.408 13.3021C150.292 12.9587 149.743 13.1059 149.863 13.4513L149.855 13.4454Z" fill="white"/>
<path d="M151.727 22.1052C152.088 21.369 152.299 20.5684 152.347 19.7499C152.346 19.5942 152.22 19.4683 152.065 19.4673C151.91 19.4703 151.784 19.5948 151.78 19.7499C151.737 20.468 151.552 21.1704 151.236 21.8167C151.157 21.9534 151.203 22.1284 151.338 22.2092C151.474 22.2899 151.65 22.2451 151.731 22.1091L151.727 22.1052Z" fill="white"/>
<path d="M123.463 79.3605C122.229 78.3566 121.952 76.5829 122.821 75.2502C123.69 73.9175 125.425 73.456 126.841 74.1808C127.595 74.5733 128.156 75.2387 128.671 75.9119C133.973 82.9273 136.389 91.706 135.423 100.446C135.226 102.105 134.895 103.809 133.937 105.177C132.516 107.212 129.893 108.172 127.415 108.062C124.936 107.952 122.586 106.904 120.478 105.593C112.352 100.537 107.418 91.7985 102.397 83.6491C102.052 83.0897 101.695 82.5186 101.186 82.1005C100.217 81.3036 98.8604 81.1898 97.6081 81.2604C96.3559 81.3311 95.086 81.5529 93.8593 81.2958C92.6326 81.0386 91.4196 80.1358 91.3077 78.8875C91.1958 77.6391 92.7287 76.4281 93.7533 77.1524C92.5266 78.7893 89.447 78.228 88.8759 76.2633C88.3047 74.2985 90.609 72.1748 92.5226 72.903C92.1301 74.2357 90.1026 74.5517 89.129 73.5605C88.1555 72.5694 88.291 70.8127 89.1958 69.7665C90.1006 68.7204 91.5688 68.2827 92.9584 68.322C94.348 68.3612 95.6866 68.8107 97.0036 69.2543C95.8888 69.5919 94.6876 68.4692 94.7288 67.3151C94.77 66.161 95.7946 65.1796 96.9349 64.948C98.0753 64.7164 99.2706 65.0991 100.252 65.7331C102.988 67.478 104.193 70.7793 105.438 73.7804C108.688 81.6012 113.321 88.772 119.116 94.9487C121.416 97.3982 124.176 99.8124 127.526 100.052C128.184 100.097 128.885 100.052 129.434 99.6789C130.716 98.8232 130.488 96.8997 130.064 95.4178C128.63 90.3914 126.672 85.5297 124.221 80.913" fill="black"/>
<path d="M123.664 79.1602C122.588 78.2613 122.29 76.5792 123.075 75.3917C123.902 74.2204 125.455 73.8193 126.745 74.4437C127.517 74.852 128.07 75.5664 128.584 76.2495C129.099 76.9325 129.587 77.643 130.047 78.3673C130.967 79.8157 131.776 81.332 132.467 82.9032C133.857 86.0681 134.762 89.425 135.15 92.8602C135.346 94.5649 135.411 96.2821 135.346 97.9968C135.277 99.7201 135.15 101.508 134.616 103.159C134.148 104.717 133.092 106.032 131.672 106.825C130.295 107.561 128.735 107.885 127.179 107.758C125.356 107.628 123.603 106.972 121.999 106.125C120.495 105.314 119.071 104.363 117.746 103.284C115.194 101.229 112.965 98.7917 110.971 96.1969C108.931 93.5433 107.118 90.7287 105.357 87.8866C104.482 86.4715 103.62 85.0504 102.749 83.6353C102.303 82.913 101.852 82.1789 101.139 81.6902C100.458 81.2608 99.678 81.0153 98.8741 80.9777C97.0762 80.8325 95.1625 81.5057 93.4176 80.86C92.7188 80.6256 92.1351 80.1345 91.7846 79.486C91.4757 78.892 91.5903 78.1659 92.0672 77.696C92.4775 77.276 93.1036 77.0385 93.6276 77.3918L93.5275 76.9992C92.713 78.0591 91.0447 78.014 90.0162 77.3152C89.4494 76.943 89.1028 76.3151 89.0898 75.6371C89.1158 74.8712 89.4741 74.1547 90.0711 73.6743C90.7121 73.0914 91.6165 72.8973 92.4402 73.166L92.2439 72.8166C92.0103 73.5664 91.1899 73.8902 90.4598 73.8431C89.5667 73.7862 88.9445 73.1208 88.7777 72.2631C88.6128 71.2875 88.9622 70.2958 89.7021 69.6389C90.4872 68.9284 91.5766 68.6222 92.6188 68.5947C94.1026 68.5555 95.5374 69.0501 96.9251 69.5192V68.9716C95.8828 69.2621 94.9015 68.1708 95.0173 67.1678C95.1448 66.0392 96.2734 65.2502 97.3412 65.1638C98.617 65.0598 99.8535 65.6781 100.813 66.4749C101.677 67.2173 102.407 68.1023 102.972 69.0913C104.211 71.1718 104.982 73.4996 105.969 75.7038C107.064 78.1431 108.297 80.5179 109.661 82.8168C112.371 87.4156 115.604 91.6855 119.295 95.5414C120.99 97.3078 122.91 98.988 125.242 99.8339C126.343 100.226 127.701 100.531 128.861 100.226C129.948 99.936 130.537 99.0096 130.653 97.9359C130.773 96.8113 130.443 95.6945 130.127 94.6287C129.721 93.2534 129.275 91.89 128.786 90.5383C127.817 87.8391 126.694 85.1975 125.422 82.6264C125.111 81.9957 124.79 81.3709 124.461 80.752C124.29 80.4282 123.801 80.7147 123.972 81.0366C125.334 83.6057 126.545 86.2521 127.599 88.9622C128.129 90.3283 128.618 91.7094 129.067 93.1056C129.283 93.7742 129.488 94.4462 129.683 95.1213C129.859 95.6659 129.991 96.2238 130.076 96.7897C130.192 97.7475 130.125 98.935 129.193 99.4767C128.649 99.7947 127.982 99.7907 127.373 99.7358C126.751 99.678 126.139 99.5462 125.548 99.3432C123.149 98.5189 121.198 96.721 119.485 94.9133C113.928 89.0264 109.43 82.2243 106.187 74.8068C105.226 72.6027 104.452 70.2768 103.118 68.2591C101.846 66.3376 99.6768 64.3336 97.1841 64.626C96.0522 64.7466 95.0724 65.4662 94.6188 66.5103C94.2068 67.5671 94.631 68.7662 95.6159 69.3288C96.0581 69.5894 96.5869 69.6602 97.0821 69.5251C97.2022 69.488 97.2841 69.377 97.2841 69.2513C97.2841 69.1256 97.2022 69.0145 97.0821 68.9775C95.6591 68.4966 94.1851 67.9961 92.6639 68.0334C91.4333 68.0569 90.1634 68.4357 89.2546 69.2935C88.4087 70.0967 88.0262 71.273 88.2379 72.4201C88.4166 73.4617 89.2545 74.2646 90.3027 74.3986C91.341 74.5281 92.4618 74.0198 92.7994 72.9736C92.8375 72.824 92.7509 72.6708 92.6031 72.6262C90.7954 71.9667 88.7463 73.5095 88.5304 75.3368C88.3184 77.1268 89.9848 78.3771 91.6394 78.3928C92.5543 78.4166 93.4267 78.0069 93.9927 77.2878C94.0719 77.151 94.0264 76.976 93.8906 76.8952C92.6404 76.0571 91.0015 77.4114 91.0132 78.752C91.027 80.4223 92.7601 81.439 94.2282 81.6313C96.138 81.8786 98.1106 81.1505 99.983 81.7589C100.862 82.0455 101.445 82.6696 101.934 83.4312C102.423 84.1927 102.851 84.9189 103.308 85.6648C105.145 88.6678 106.984 91.6728 109.027 94.5423C111.037 97.3628 113.245 100.062 115.817 102.393C117.102 103.564 118.48 104.628 119.938 105.575C121.53 106.601 123.246 107.493 125.087 107.973C126.774 108.445 128.558 108.454 130.251 108.001C131.818 107.582 133.197 106.643 134.16 105.337C135.236 103.82 135.552 101.918 135.731 100.109C135.92 98.3068 135.961 96.4923 135.854 94.6836C135.535 89.2396 133.947 83.9457 131.216 79.225C130.765 78.4504 130.283 77.6927 129.772 76.9521C129.272 76.1882 128.71 75.4662 128.094 74.7931C127.539 74.1733 126.791 73.7584 125.972 73.6154C125.241 73.5143 124.496 73.6397 123.838 73.9746C122.475 74.6823 121.777 76.2337 122.15 77.7235C122.309 78.4382 122.696 79.0817 123.253 79.5567C123.532 79.7883 123.935 79.3899 123.646 79.1642L123.664 79.1602Z" fill="black"/>
<path d="M91.1898 92.0672C87.2486 91.6747 83.276 91.1447 79.4702 90.0868V90.0986C84.185 92.8298 89.3281 94.7431 94.6816 95.7572C95.0741 94.6542 95.504 93.5616 95.9711 92.4794C94.3715 92.3734 92.7777 92.2302 91.1898 92.0672Z" fill="black"/>
<path d="M91.1899 91.7847C87.2644 91.3922 83.3506 90.8662 79.5468 89.822C79.3965 89.7827 79.2421 89.8694 79.1975 90.0182V90.032C79.165 90.1555 79.2178 90.2857 79.327 90.3519C83.0104 92.4831 86.9571 94.1228 91.0662 95.2294C92.236 95.5434 93.4137 95.8136 94.5992 96.04C94.7489 96.0751 94.9007 95.9899 94.9485 95.8437C95.3319 94.7589 95.7513 93.6879 96.2067 92.6307C96.2555 92.543 96.2549 92.4362 96.2051 92.3491C96.1553 92.2619 96.0636 92.2072 95.9633 92.2047C94.3676 92.0988 92.7758 91.9555 91.1859 91.7945C90.8228 91.7572 90.8268 92.3245 91.1859 92.3618C92.7758 92.5227 94.3676 92.666 95.9633 92.772L95.7179 92.3461C95.2417 93.4452 94.8026 94.5607 94.4009 95.6926L94.7503 95.4963C90.6041 94.7092 86.5789 93.3822 82.7775 91.5492C81.6993 91.0258 80.6427 90.4644 79.6077 89.8651L79.7372 90.1851V90.1733L79.3898 90.3696C83.2407 91.4373 87.2153 91.9574 91.184 92.3618C91.553 92.3892 91.5491 91.822 91.1899 91.7847Z" fill="black"/>
<path d="M114.778 90.6012C113.186 91.156 111.555 91.591 109.899 91.9025C106.228 92.5954 102.491 92.7445 98.7523 92.617C98.3519 93.8077 97.9895 95.0109 97.665 96.2265L98.0124 96.2716C100.782 96.5955 103.575 96.6779 106.364 96.7603C108.719 96.829 111.108 96.8918 113.43 96.5641C113.744 94.5482 114.194 92.556 114.778 90.6012V90.6012Z" fill="black"/>
<path d="M114.702 90.3283C110.729 91.7022 106.539 92.2753 102.336 92.3617C101.139 92.3872 99.9418 92.3734 98.7445 92.3342C98.6174 92.3365 98.5064 92.4205 98.4697 92.5422C98.0772 93.733 97.7154 94.9361 97.3843 96.1517C97.3628 96.2368 97.3812 96.3271 97.4343 96.397C97.4874 96.4669 97.5694 96.5088 97.6571 96.5109C99.718 96.7779 101.799 96.8878 103.875 96.9643C105.952 97.0409 107.997 97.1292 110.046 97.0919C111.204 97.0757 112.361 96.9892 113.508 96.8328C113.605 96.8088 113.681 96.7333 113.705 96.6365C114.021 94.6231 114.471 92.633 115.053 90.6796C115.159 90.3283 114.611 90.1791 114.507 90.5285C113.924 92.4814 113.473 94.4716 113.159 96.4854L113.355 96.2891C111.341 96.5718 109.3 96.5561 107.271 96.5031C105.241 96.4501 103.161 96.3951 101.112 96.2636C99.9594 96.191 98.8073 96.0929 97.663 95.9457L97.9358 96.3048C98.2617 95.0905 98.6241 93.8874 99.0232 92.6953L98.7504 92.9034C102.994 93.0427 107.286 92.8386 111.434 91.869C112.589 91.6011 113.729 91.2735 114.851 90.8876C115.196 90.7561 115.049 90.2085 114.702 90.3283Z" fill="black"/>
<path d="M77.4917 113.821C78.049 113.583 78.6967 113.755 79.0619 114.239C79.3997 114.763 79.3174 115.453 78.8656 115.883L78.7871 115.95C78.7067 115.978 78.7047 115.999 78.7871 116.015C78.7989 116.039 78.7754 115.925 78.7754 115.905C78.7915 115.76 78.8427 115.62 78.9245 115.499C79.18 115.035 79.6281 114.708 80.148 114.606C80.6679 114.505 81.2061 114.639 81.6174 114.973C81.7535 115.053 81.9292 115.009 82.01 114.873C82.0881 114.736 82.0428 114.562 81.9079 114.48C81.2442 113.977 80.3651 113.858 79.5919 114.168C78.9402 114.437 78.2533 115.104 78.1983 115.846C78.1747 116.174 78.3514 116.559 78.7263 116.553C79.1012 116.547 79.4113 116.16 79.5762 115.876C79.9522 115.237 79.9105 114.436 79.4702 113.84C78.9611 113.208 78.1028 112.976 77.3445 113.265C77.197 113.311 77.111 113.465 77.1482 113.615C77.1928 113.763 77.3473 113.85 77.4976 113.811L77.4917 113.821Z" fill="white"/>
<path d="M102.244 112.788C101.323 113.065 100.898 114.029 100.786 114.912C100.725 115.41 100.764 115.952 101.066 116.37C101.346 116.733 101.769 116.956 102.226 116.981C103.176 117.061 104.054 116.327 104.44 115.503C104.617 115.126 104.637 114.549 104.132 114.421C103.579 114.278 103.204 114.965 102.931 115.324C102.756 115.552 102.509 115.801 102.587 116.109C102.66 116.39 102.933 116.529 103.176 116.647C103.765 116.936 104.376 117.195 104.994 117.432C105.335 117.56 105.483 117.012 105.143 116.886C104.75 116.74 104.362 116.58 103.979 116.408C103.795 116.325 103.61 116.239 103.428 116.148C103.351 116.114 103.276 116.075 103.204 116.031C103.125 115.976 103.141 115.988 103.192 115.915C103.312 115.744 103.443 115.583 103.571 115.418C103.668 115.25 103.798 115.104 103.954 114.988C104.009 114.959 103.987 114.961 103.999 114.988C104.005 115.031 104 115.074 103.985 115.114C103.942 115.262 103.872 115.401 103.777 115.522C103.428 116.044 102.858 116.504 102.193 116.413C101.906 116.384 101.648 116.226 101.49 115.984C101.332 115.663 101.283 115.3 101.353 114.949C101.435 114.317 101.73 113.54 102.399 113.34C102.748 113.234 102.595 112.688 102.248 112.792L102.244 112.788Z" fill="white"/>
<path d="M78.4536 119.118L80.8795 118.592C81.0216 118.543 81.1011 118.392 81.0611 118.247C81.0211 118.102 80.8755 118.014 80.7284 118.044L78.3024 118.571C78.1987 118.592 78.1157 118.67 78.0869 118.772C78.0581 118.874 78.0884 118.983 78.1654 119.056C78.2424 119.129 78.3534 119.153 78.4536 119.118Z" fill="white"/>
<path d="M78.9069 121.03L80.9089 120.808C81.0636 120.805 81.1884 120.68 81.1915 120.526C81.1904 120.37 81.0648 120.243 80.9089 120.241L78.9069 120.469C78.7517 120.472 78.6264 120.596 78.6223 120.751C78.6233 120.908 78.7501 121.035 78.9069 121.036V121.03Z" fill="white"/>
<path d="M101.19 111.108C101.646 111.278 102.148 111.282 102.607 111.118C102.747 111.068 102.825 110.919 102.786 110.775C102.747 110.632 102.604 110.542 102.458 110.57C102.36 110.608 102.259 110.635 102.156 110.653C102.138 110.653 102.05 110.682 102.12 110.653C102.098 110.655 102.076 110.655 102.054 110.653C102.002 110.656 101.95 110.656 101.899 110.653C101.846 110.656 101.794 110.656 101.741 110.653C101.741 110.653 101.655 110.653 101.73 110.653C101.7 110.653 101.671 110.653 101.641 110.639C101.539 110.617 101.439 110.588 101.341 110.553C101.191 110.511 101.036 110.599 100.994 110.749C100.957 110.899 101.042 111.052 101.19 111.098V111.108Z" fill="white"/>
<path d="M101.793 108.692C101.94 108.68 102.054 108.556 102.054 108.408C102.054 108.26 101.94 108.137 101.793 108.125C101.645 108.137 101.532 108.26 101.532 108.408C101.532 108.556 101.645 108.68 101.793 108.692Z" fill="white"/>
<path d="M107.436 92.9604C108.306 94.1833 109.288 95.3233 110.368 96.3658C110.631 96.619 111.031 96.2186 110.76 95.9733C109.715 94.9661 108.766 93.8642 107.924 92.6817C107.843 92.5469 107.669 92.5016 107.532 92.5797C107.466 92.6181 107.418 92.6811 107.399 92.7548C107.38 92.8284 107.391 92.9066 107.43 92.9722L107.436 92.9604Z" fill="white"/>
<path d="M31.1099 45.3403C29.8694 46.1254 28.4268 47.1244 28.101 48.6671C27.9904 49.0456 28.0204 49.4513 28.1854 49.8095C28.3644 50.127 28.7264 50.2945 29.0843 50.2256C29.4142 50.1479 29.6189 49.8176 29.5416 49.4876C29.4788 49.1873 29.1628 48.8988 28.8468 49.0538C28.4687 49.2627 28.1484 49.5621 27.9145 49.9253C27.6532 50.2999 27.482 50.7298 27.414 51.1814C27.361 51.5387 27.9086 51.6937 27.9616 51.3326C28.009 50.9909 28.1252 50.6624 28.3031 50.3669C28.3925 50.2191 28.4978 50.0815 28.6172 49.9567C28.7291 49.8389 28.9116 49.7427 29.0097 49.621C29.1 49.5792 29.0902 49.5635 28.9803 49.5739C28.9803 49.5955 29.0195 49.6309 28.994 49.6623C28.9253 49.7408 28.7605 49.6309 28.7153 49.5779C28.519 49.3482 28.6231 48.9086 28.6937 48.6514C29.0568 47.3501 30.3326 46.5199 31.4023 45.8329C31.7085 45.6367 31.4259 45.146 31.1158 45.3442L31.1099 45.3403Z" fill="white"/>
<path d="M20.7937 46.669L21.5788 45.7191C21.6297 45.666 21.6597 45.5963 21.6632 45.5228C21.6608 45.409 21.5909 45.3076 21.4854 45.2649C21.38 45.2222 21.2592 45.2465 21.1784 45.3265L20.3933 46.2765C20.3426 46.3298 20.3127 46.3994 20.3089 46.4728C20.3103 46.5467 20.3406 46.6172 20.3933 46.669C20.5036 46.7727 20.6755 46.7727 20.7858 46.669H20.7937Z" fill="white"/>
<path d="M24.2697 43.505C24.2815 43.4579 24.2972 43.4128 24.3129 43.3676C24.3286 43.3225 24.3306 43.3225 24.3384 43.2989C24.3168 43.3598 24.3384 43.2871 24.3482 43.2793C24.3862 43.1951 24.4302 43.1138 24.4797 43.0359C24.5053 42.9947 24.5327 42.9554 24.5602 42.9162C24.5877 42.8769 24.5936 42.8769 24.5602 42.9162L24.6054 42.8593C24.6668 42.7869 24.7324 42.7181 24.8016 42.6532L24.9116 42.5609L24.9724 42.5197C25.0486 42.4684 25.1279 42.4218 25.2099 42.3804L25.2747 42.3509C25.3473 42.3156 25.2217 42.3705 25.2963 42.3411C25.3414 42.3234 25.3865 42.3058 25.4317 42.292C25.5235 42.2629 25.6173 42.2406 25.7124 42.2253C25.8619 42.1815 25.949 42.0264 25.9086 41.8759C25.8623 41.7285 25.7093 41.6425 25.5593 41.6796C24.6697 41.8486 23.9501 42.5023 23.6966 43.3715C23.6573 43.5218 23.7441 43.6763 23.8929 43.7209C24.0429 43.7581 24.196 43.6721 24.2423 43.5246L24.2697 43.505Z" fill="white"/>
<path d="M94.4441 68.2593C95.9421 68.1591 97.4346 68.5223 98.719 69.2996C98.8534 69.3679 99.0177 69.3196 99.0937 69.1894C99.1698 69.0593 99.1311 68.8924 99.0056 68.8089C97.6348 67.9797 96.0428 67.5906 94.4441 67.6941C94.083 67.7176 94.079 68.2829 94.4441 68.2593Z" fill="white"/>
<path d="M81.2289 62.208C80.8345 62.1682 80.4723 62.4287 80.3845 62.8152C80.2968 63.2018 80.5109 63.5932 80.8838 63.7276C81.2567 63.8621 81.6713 63.6975 81.8505 63.3439C82.0296 62.9903 81.9171 62.5586 81.5881 62.3375" fill="black"/>
<path d="M81.2289 61.9234C80.8112 61.8993 80.4155 62.1127 80.2063 62.475C79.9938 62.8357 80.0104 63.287 80.2488 63.6312C80.4872 63.9753 80.9039 64.1495 81.3163 64.0774C81.7287 64.0053 82.0616 63.7 82.169 63.2954C82.2872 62.8412 82.1093 62.3615 81.7235 62.0942C81.658 62.0551 81.5796 62.0438 81.5058 62.063C81.432 62.0822 81.369 62.1302 81.3309 62.1963C81.2528 62.3331 81.2981 62.5073 81.433 62.5888C81.4036 62.5594 81.4899 62.6281 81.433 62.5888C81.4624 62.6183 81.4585 62.6104 81.4703 62.6241L81.4997 62.6536C81.4997 62.6536 81.5468 62.7066 81.5174 62.6712C81.488 62.6359 81.5292 62.6889 81.5311 62.6928L81.5547 62.7282C81.5547 62.7399 81.5684 62.7517 81.5743 62.7655C81.5802 62.7792 81.6038 62.8126 81.5743 62.7655C81.5892 62.7974 81.6004 62.831 81.6077 62.8656C81.6119 62.8784 81.6152 62.8915 81.6175 62.9048V62.9284C81.6175 62.8852 81.6175 62.946 81.6175 62.9539C81.6185 62.9676 81.6185 62.9814 81.6175 62.9951V63.0363C81.6175 63.0461 81.6175 63.1286 81.6175 63.0815C81.6175 63.0344 81.6175 63.1011 81.6175 63.105C81.6152 63.119 81.6119 63.1327 81.6077 63.1462C81.6077 63.158 81.6077 63.1718 81.5959 63.1855C81.5841 63.1992 81.5665 63.2483 81.5959 63.209C81.6253 63.1698 81.5841 63.2287 81.5822 63.2306C81.5802 63.2326 81.5684 63.2561 81.5625 63.2679L81.5488 63.2895C81.5704 63.2561 81.5311 63.3091 81.5233 63.317C81.5025 63.34 81.4802 63.3617 81.4565 63.3818C81.4173 63.4171 81.4565 63.3818 81.4664 63.3818C81.4532 63.3933 81.4387 63.4032 81.4232 63.4112L81.3407 63.4583C81.2838 63.4917 81.382 63.4446 81.3407 63.4583L81.2819 63.4799L81.1916 63.5015C81.1248 63.5172 81.2367 63.5015 81.1916 63.5015H81.1405H81.0581C81.0483 63.5015 80.9914 63.4858 81.0326 63.5015C81.0738 63.5172 81.009 63.5015 80.9992 63.5015C80.9686 63.4959 80.9388 63.4859 80.9109 63.4721C80.9286 63.4721 80.9659 63.5074 80.9109 63.4721C80.8952 63.4647 80.8801 63.4562 80.8658 63.4465L80.8304 63.423C80.7872 63.3935 80.8304 63.423 80.8304 63.423C80.7959 63.3999 80.7659 63.3706 80.7421 63.3366L80.7146 63.3052C80.7146 63.3052 80.746 63.3504 80.7146 63.3052C80.6832 63.2601 80.6773 63.2463 80.6616 63.2149C80.6559 63.2021 80.6493 63.1897 80.642 63.1776C80.6126 63.1168 80.6557 63.2189 80.642 63.1776C80.6283 63.1364 80.6185 63.107 80.6106 63.0677C80.6119 63.0547 80.6119 63.0415 80.6106 63.0285C80.6263 63.0481 80.6106 63.0795 80.6106 63.0422C80.6086 63.0076 80.6086 62.9728 80.6106 62.9382C80.6087 62.9245 80.6087 62.9106 80.6106 62.897C80.5851 62.948 80.6106 62.9284 80.6106 62.897C80.6187 62.8582 80.6299 62.8201 80.644 62.7831C80.644 62.7929 80.6185 62.8361 80.644 62.7929C80.6533 62.7733 80.6637 62.7543 80.6754 62.736L80.7048 62.6909L80.693 62.7066L80.7146 62.6811C80.7413 62.6521 80.7695 62.6246 80.799 62.5986C80.8108 62.5869 80.8402 62.5711 80.799 62.5986L80.852 62.5613L80.8991 62.5339L80.9345 62.5162C80.8932 62.5358 80.958 62.5162 80.96 62.5162L81.0228 62.4966H81.064C81.1268 62.4809 81.0149 62.4966 81.0738 62.4966C81.1327 62.4966 81.1602 62.4966 81.2034 62.4966C81.3594 62.4966 81.486 62.37 81.486 62.2139C81.4829 62.0588 81.3585 61.9335 81.2034 61.9293L81.2289 61.9234Z" fill="black"/>
<path d="M84.7422 63.4092C84.348 63.3677 83.9847 63.6265 83.8952 64.0126C83.8056 64.3987 84.0179 64.791 84.39 64.9273C84.7622 65.0635 85.1776 64.901 85.3585 64.5484C85.5394 64.1957 85.4291 63.7635 85.1013 63.5407" fill="black"/>
<path d="M84.7422 63.1265C84.325 63.1024 83.9297 63.3148 83.7196 63.676C83.5082 64.0366 83.5251 64.4871 83.7632 64.8306C84.0012 65.1742 84.417 65.3484 84.8288 65.2772C85.2407 65.2059 85.5737 64.902 85.6824 64.4984C85.8017 64.0442 85.6236 63.5638 85.2368 63.2972C85.1718 63.2574 85.0934 63.2456 85.0194 63.2644C84.9455 63.2833 84.8823 63.3312 84.8443 63.3973C84.767 63.5338 84.8111 63.7071 84.9444 63.7899C84.915 63.7604 85.0013 63.8291 84.9444 63.7899L84.9817 63.8233L85.0111 63.8527L85.0288 63.8723C84.9994 63.839 85.0406 63.89 85.0445 63.8939L85.0661 63.9292C85.0734 63.9406 85.0799 63.9524 85.0857 63.9646C85.1014 63.994 85.1152 64.0136 85.0857 63.9646C85.1 63.9968 85.1112 64.0303 85.1191 64.0647C85.1184 64.0777 85.1184 64.0908 85.1191 64.1039C85.1191 64.1039 85.1367 64.1746 85.1191 64.1275C85.1014 64.0804 85.1191 64.1451 85.1191 64.153C85.1181 64.1667 85.1181 64.1805 85.1191 64.1942C85.1201 64.2079 85.1201 64.2217 85.1191 64.2354C85.1191 64.2354 85.1191 64.3277 85.1191 64.2806C85.1191 64.2335 85.1191 64.3002 85.1191 64.3041C85.1191 64.3081 85.1191 64.3316 85.1093 64.3434L85.0975 64.3846C85.0975 64.3846 85.0661 64.4474 85.0877 64.4082C85.1093 64.3689 85.0759 64.4278 85.0759 64.4297L85.0543 64.467C85.0543 64.467 85.017 64.5279 85.0406 64.4886C85.0641 64.4494 85.0229 64.5083 85.017 64.5161C85.0111 64.524 84.9719 64.5593 84.9503 64.5809C84.9287 64.6025 84.9503 64.5809 84.9503 64.5809C84.9375 64.5929 84.9229 64.6028 84.9071 64.6103L84.8266 64.6555C84.7677 64.6888 84.8659 64.6437 84.8266 64.6555L84.7677 64.6751C84.7382 64.6848 84.708 64.6926 84.6775 64.6986C84.6107 64.7143 84.7246 64.6986 84.6775 64.6986H84.6245H84.542C84.542 64.6986 84.4753 64.6829 84.5185 64.6986L84.4851 64.6888C84.4538 64.6845 84.4233 64.6752 84.3948 64.6613C84.4145 64.6613 84.4498 64.6967 84.3948 64.6613L84.3497 64.6358L84.3163 64.6123C84.2712 64.5828 84.3163 64.6123 84.3163 64.6123C84.2808 64.5898 84.2501 64.5604 84.226 64.5259L84.1986 64.4945C84.1986 64.4945 84.23 64.5397 84.1986 64.4945C84.1671 64.4494 84.1613 64.4376 84.1436 64.4062L84.1259 64.3689C84.0965 64.3081 84.1377 64.4101 84.1259 64.3689C84.1142 64.3277 84.1024 64.2963 84.0945 64.259C84.0956 64.2453 84.0956 64.2315 84.0945 64.2178C84.1102 64.2374 84.0945 64.2688 84.0945 64.2315C84.0945 64.1942 84.0945 64.1628 84.0945 64.1294C84.0936 64.1157 84.0936 64.1019 84.0945 64.0882C84.069 64.1373 84.0945 64.1196 84.0945 64.0882C84.1029 64.0502 84.1141 64.0128 84.1279 63.9763C84.1024 64.0293 84.1279 63.9862 84.1279 63.9763C84.1534 63.9234 84.1495 63.9391 84.1593 63.9214L84.1907 63.8762C84.2025 63.8586 84.1907 63.8645 84.1789 63.89L84.1986 63.8664C84.226 63.837 84.2555 63.8095 84.2829 63.782C84.3104 63.7546 84.3261 63.7565 84.2829 63.782L84.3379 63.7447L84.3831 63.7173L84.4184 63.6996L84.4439 63.6898L84.5067 63.6721H84.5479C84.4989 63.6721 84.6107 63.6564 84.5479 63.6721C84.597 63.6721 84.6343 63.6721 84.6775 63.6721C84.8346 63.6721 84.9621 63.5447 84.9621 63.3875C84.9579 63.2324 84.8326 63.108 84.6775 63.1049L84.7422 63.1265Z" fill="black"/>
<path d="M82.0179 66.002C81.6237 65.9605 81.2604 66.2193 81.1709 66.6054C81.0813 66.9914 81.2936 67.3837 81.6658 67.52C82.0379 67.6563 82.4533 67.4938 82.6342 67.1411C82.8151 66.7885 82.7048 66.3563 82.3771 66.1335" fill="black"/>
<path d="M82.018 65.7195C81.6008 65.6954 81.2054 65.9078 80.9954 66.2691C80.7963 66.628 80.8215 67.0695 81.0601 67.4035C81.2989 67.7513 81.7223 67.9228 82.1357 67.8393C82.5302 67.7642 82.8502 67.476 82.966 67.0915C83.0838 66.6367 82.906 66.1566 82.5204 65.8883C82.4548 65.8497 82.3766 65.8388 82.303 65.8579C82.2293 65.8771 82.1663 65.9247 82.1279 65.9904C82.0509 66.1274 82.096 66.3007 82.2299 66.3829C82.1985 66.3535 82.2849 66.4202 82.2299 66.3829L82.2692 66.4182L82.2986 66.4477L82.3163 66.4673C82.2868 66.4339 82.3281 66.485 82.33 66.4889L82.3536 66.5242L82.3732 66.5596C82.3889 66.589 82.4007 66.6086 82.3732 66.5596C82.3881 66.5909 82.3993 66.6238 82.4066 66.6577C82.4108 66.6712 82.4141 66.685 82.4164 66.6989C82.4164 66.6989 82.4341 66.7696 82.4164 66.7225C82.3987 66.6754 82.4164 66.7401 82.4164 66.746C82.4174 66.7604 82.4174 66.7748 82.4164 66.7892V66.8304C82.4164 66.8304 82.4164 66.9207 82.4164 66.8756C82.4164 66.8304 82.4164 66.8932 82.4164 66.8991C82.4171 66.9122 82.4171 66.9253 82.4164 66.9384L82.4046 66.9776C82.4046 66.9776 82.3752 67.0404 82.4046 67.0031C82.4341 66.9658 82.3928 67.0208 82.3909 67.0247C82.3844 67.0369 82.3772 67.0487 82.3693 67.0601C82.3693 67.0601 82.332 67.1209 82.3575 67.0836C82.383 67.0463 82.3398 67.1032 82.332 67.1091C82.3117 67.1327 82.2894 67.1543 82.2653 67.1739C82.226 67.2092 82.2653 67.1739 82.2653 67.1739C82.2517 67.1848 82.2372 67.1947 82.2221 67.2033L82.1396 67.2485C82.0827 67.2818 82.1809 67.2347 82.1396 67.2485L82.0808 67.2701L81.9885 67.2936C81.9237 67.3093 82.0356 67.2936 81.9885 67.2936H81.9375C81.91 67.2936 81.8825 67.2936 81.855 67.2936C81.8276 67.2936 81.7863 67.2779 81.8295 67.2936L81.7962 67.2838C81.7653 67.2791 81.7354 67.2691 81.7078 67.2544C81.7255 67.2544 81.7608 67.2897 81.7078 67.2544C81.6922 67.247 81.6771 67.2385 81.6627 67.2289L81.6274 67.2073C81.5822 67.1778 81.6274 67.2073 81.6274 67.2073C81.5979 67.1974 81.5587 67.1445 81.5371 67.1209C81.5155 67.0973 81.5096 67.0915 81.5116 67.0895C81.5135 67.0875 81.541 67.1366 81.5116 67.0895C81.4821 67.0424 81.4743 67.0306 81.4586 67.0012L81.4389 66.9639C81.4095 66.903 81.4507 67.0051 81.4389 66.9639C81.4272 66.9227 81.4154 66.8913 81.4056 66.854C81.4069 66.8403 81.4069 66.8265 81.4056 66.8127C81.4232 66.8324 81.4056 66.8638 81.4056 66.8265C81.4036 66.7918 81.4036 66.7571 81.4056 66.7225C81.4037 66.7088 81.4037 66.6949 81.4056 66.6812C81.3801 66.7323 81.4056 66.7126 81.4056 66.6812C81.415 66.6432 81.4268 66.6059 81.4409 66.5694C81.4154 66.6224 81.4409 66.5694 81.4409 66.5694L81.4723 66.5124L81.5017 66.4693C81.5135 66.4516 81.5017 66.4575 81.49 66.483L81.5116 66.4575C81.5382 66.4285 81.5664 66.401 81.596 66.3751L81.649 66.3397L81.6961 66.3122C81.6961 66.3122 81.7687 66.2769 81.7294 66.2946C81.6902 66.3122 81.753 66.2946 81.7569 66.2848L81.8178 66.2671L81.8609 66.2573C81.8119 66.2573 81.9237 66.2435 81.8609 66.2573C81.9041 66.2544 81.9473 66.2544 81.9905 66.2573C82.138 66.245 82.2515 66.1217 82.2515 65.9737C82.2515 65.8256 82.138 65.7023 81.9905 65.6901L82.018 65.7195Z" fill="black"/>
<path d="M81.2504 60.0157C84.2273 59.1009 87.358 58.7952 90.4557 59.1168C90.8188 59.156 90.8149 58.5888 90.4557 58.5515C87.3076 58.2259 84.1262 58.5377 81.1012 59.4681C80.7538 59.5761 80.9049 60.1237 81.2504 60.0157Z" fill="white"/>
<path d="M91.4567 59.4995C91.6042 59.4872 91.7177 59.3639 91.7177 59.2159C91.7177 59.0679 91.6042 58.9446 91.4567 58.9323C91.3092 58.9446 91.1957 59.0679 91.1957 59.2159C91.1957 59.3639 91.3092 59.4872 91.4567 59.4995Z" fill="white"/>
<path d="M92.5069 59.5506C92.663 59.5506 92.7895 59.4241 92.7895 59.268C92.7895 59.1119 92.663 58.9853 92.5069 58.9853C92.3508 58.9853 92.2242 59.1119 92.2242 59.268C92.2242 59.4241 92.3508 59.5506 92.5069 59.5506Z" fill="white"/>
<path d="M92.6167 60.5535C92.7643 60.5412 92.8777 60.4179 92.8777 60.2699C92.8777 60.1218 92.7643 59.9985 92.6167 59.9863C92.4692 59.9985 92.3558 60.1218 92.3558 60.2699C92.3558 60.4179 92.4692 60.5412 92.6167 60.5535Z" fill="white"/>
<path d="M125.265 60.8223C126.329 62.7851 127.308 64.7989 128.676 66.5712C129.339 67.4568 130.128 68.2392 131.02 68.8932C131.577 69.2857 132.162 69.6528 132.737 70.0217C133.13 70.2769 133.522 70.5281 133.935 70.7656C134.189 70.9372 134.466 71.0732 134.757 71.17C135.11 71.2563 135.261 70.7107 134.906 70.6224C134.831 70.6047 134.759 70.5756 134.692 70.536C134.547 70.4634 134.404 70.3809 134.262 70.2985C133.923 70.1022 133.591 69.8942 133.261 69.6842C132.706 69.3328 132.16 68.9677 131.611 68.6086C129.781 67.4132 128.525 65.5408 127.456 63.6762C126.867 62.6438 126.323 61.5819 125.754 60.5358C125.579 60.2158 125.09 60.5024 125.265 60.8223Z" fill="black"/>
<path d="M120.698 41.8701C121.304 41.7632 121.915 41.6924 122.529 41.6581C122.955 41.6581 123.385 41.7072 123.809 41.7484C124.973 41.8583 126.135 42.0016 127.301 42.0879C127.664 42.1134 127.662 41.5482 127.301 41.5207C126.135 41.4343 124.973 41.291 123.809 41.1811C123.389 41.1419 122.965 41.0928 122.543 41.0908C121.924 41.1243 121.308 41.1951 120.698 41.3028C120.339 41.346 120.335 41.9132 120.698 41.8701Z" fill="black"/>
<path d="M81.2484 50.9498C82.9976 49.6341 85.2084 49.0903 87.3683 49.4444C87.7255 49.5052 87.8786 48.9596 87.5194 48.8968C85.2109 48.5037 82.842 49.0709 80.9619 50.467C80.6733 50.6829 80.9619 51.1755 81.2484 50.9577V50.9498Z" fill="black"/>
<path d="M100.497 49.0989C101.886 48.8296 103.31 48.7912 104.711 48.9851C105.347 49.0648 105.974 49.2055 106.584 49.4051C107.1 49.5818 107.598 49.8566 107.885 50.3355C107.968 50.461 108.135 50.4997 108.266 50.4237C108.396 50.3476 108.444 50.1833 108.376 50.0489C107.691 48.9105 106.162 48.6318 104.953 48.4512C103.422 48.2239 101.865 48.2585 100.346 48.5533C99.9889 48.622 100.14 49.1696 100.497 49.0989Z" fill="black"/>
<path d="M67.1147 47.3265C64.3511 50.3491 61.6563 53.4718 59.5718 56.9989C57.6091 60.3356 56.19 64.0766 55.9584 67.9393C56.9802 67.7163 57.9795 67.4003 58.9437 66.9952C59.9806 66.5558 60.9826 66.0381 61.9409 65.4466C62.6416 61.3248 64.1686 57.1873 65.8036 53.3364C67.4032 49.5699 69.2227 45.7072 72.0844 42.8514L71.9175 42.8887C70.1157 44.1173 68.5887 45.715 67.1147 47.3265Z" fill="black"/>
<path d="M46.8924 60.9635C47.7429 59.0675 49.1016 57.444 50.8179 56.2725C51.2242 55.9977 51.7463 55.5895 52.2664 55.6562C52.4699 55.6685 52.6525 55.785 52.7493 55.9644C52.7964 56.092 52.7336 56.3275 52.5805 56.3569C52.4274 56.3864 52.3155 56.1607 52.3116 56.0272C52.3116 55.7661 52.5079 55.5306 52.6668 55.3481C53.0238 54.946 53.4053 54.5665 53.8092 54.2116C54.7281 53.3875 55.7765 52.7204 56.9123 52.2371C57.244 52.0997 57.0987 51.5501 56.7612 51.6915C55.4955 52.2243 54.3299 52.969 53.3146 53.8937C53.0692 54.1155 52.8317 54.3471 52.6021 54.5846C52.3464 54.8259 52.121 55.0975 51.9308 55.3932C51.658 55.8702 51.6737 56.5826 52.2311 56.8555C52.7591 57.1146 53.3028 56.6396 53.3322 56.1057C53.3636 55.5051 52.7826 55.1125 52.237 55.0811C51.5618 55.0399 50.9298 55.4992 50.4038 55.8662C48.6601 57.0758 47.2781 58.7366 46.4057 60.6711C46.2565 61.0028 46.7452 61.2913 46.8944 60.9576L46.8924 60.9635Z" fill="white"/>
<path d="M59.14 50.9614L59.2106 50.8907C59.2372 50.8658 59.2574 50.8348 59.2695 50.8004C59.287 50.7665 59.2951 50.7286 59.293 50.6905C59.2953 50.6524 59.2872 50.6144 59.2695 50.5806C59.258 50.5459 59.2377 50.5148 59.2106 50.4903L59.1537 50.4452C59.1098 50.4206 59.0607 50.4071 59.0104 50.4059L58.9339 50.4177C58.8868 50.4301 58.844 50.4552 58.8102 50.4903L58.7395 50.561C58.7125 50.5855 58.6922 50.6166 58.6807 50.6513C58.663 50.6851 58.6548 50.7231 58.6571 50.7612C58.6545 50.7987 58.6626 50.8361 58.6807 50.8691C58.6922 50.9043 58.7125 50.9361 58.7395 50.9614L58.7965 51.0046C58.8399 51.03 58.8894 51.0435 58.9398 51.0438L59.0143 51.034C59.0619 51.0213 59.1052 50.9962 59.14 50.9614Z" fill="white"/>
<path d="M60.9791 49.6385C61.1266 49.6262 61.2401 49.5029 61.2401 49.3549C61.2401 49.2069 61.1266 49.0836 60.9791 49.0713C60.8316 49.0836 60.7181 49.2069 60.7181 49.3549C60.7181 49.5029 60.8316 49.6262 60.9791 49.6385Z" fill="white"/>
<path d="M60.2765 51.6758C60.4326 51.6758 60.5591 51.5493 60.5591 51.3932C60.5591 51.2371 60.4326 51.1105 60.2765 51.1105C60.1204 51.1105 59.9938 51.2371 59.9938 51.3932C59.9938 51.5493 60.1204 51.6758 60.2765 51.6758Z" fill="white"/>
<path d="M126.313 57.1226L127.862 60.8008C128.298 61.8351 128.753 62.8989 129.558 63.7056C129.927 64.0837 130.368 64.384 130.855 64.5889C131.275 64.7636 131.97 64.9814 132.347 64.6222C132.916 64.0687 132.629 62.2414 131.585 62.5672C130.996 62.7517 131.116 63.5035 131.283 63.9412C131.492 64.4927 131.835 64.9833 132.282 65.3681C132.557 65.6056 132.959 65.2052 132.675 64.9755C132.379 64.7255 132.134 64.4218 131.952 64.0805C131.882 63.949 131.517 63.213 131.756 63.1129C131.917 63.0481 132.007 63.3523 132.023 63.4485C132.049 63.6288 132.049 63.8119 132.023 63.9922C131.991 64.2101 131.919 64.267 131.693 64.2434C131.491 64.2183 131.293 64.1675 131.104 64.0923C129.45 63.4603 128.786 61.5721 128.16 60.0804L126.855 56.9714C126.716 56.6417 126.166 56.7869 126.307 57.1226H126.313Z" fill="white"/>
<path d="M134.58 67.4839L134.686 67.378C134.714 67.3532 134.733 67.3212 134.743 67.2857C134.762 67.2529 134.771 67.2154 134.769 67.1778C134.77 67.1395 134.762 67.1015 134.743 67.0678C134.733 67.0331 134.713 67.0018 134.686 66.9776L134.627 66.9324C134.584 66.9076 134.534 66.8941 134.484 66.8932L134.41 66.9049C134.362 66.9174 134.319 66.9425 134.284 66.9776L134.18 67.0816C134.153 67.1066 134.132 67.1385 134.121 67.1738C134.087 67.2425 134.087 67.3231 134.121 67.3917C134.132 67.4274 134.152 67.4594 134.18 67.4839L134.237 67.5271C134.28 67.5528 134.33 67.5664 134.38 67.5664L134.455 67.5566C134.502 67.5439 134.546 67.5188 134.58 67.4839Z" fill="white"/>
<path d="M135.55 65.6055L135.444 65.7115C135.417 65.7364 135.397 65.7674 135.385 65.8018C135.368 65.8357 135.359 65.8736 135.362 65.9117C135.359 65.9498 135.367 65.9878 135.385 66.0216C135.397 66.0563 135.417 66.0874 135.444 66.1119L135.503 66.157C135.546 66.1821 135.595 66.195 135.644 66.1943L135.721 66.1845C135.768 66.1713 135.811 66.1463 135.846 66.1119L135.95 66.0059C135.977 65.9814 135.998 65.9503 136.009 65.9156C136.027 65.8816 136.035 65.8439 136.035 65.8057C136.035 65.7682 136.027 65.731 136.009 65.6978C135.998 65.6625 135.977 65.6308 135.95 65.6055L135.893 65.5623C135.85 65.5366 135.801 65.523 135.75 65.5231L135.676 65.5329C135.628 65.5456 135.585 65.5706 135.55 65.6055Z" fill="white"/>
<path d="M135.856 68.7263C136.004 68.714 136.117 68.5907 136.117 68.4427C136.117 68.2947 136.004 68.1714 135.856 68.1591C135.709 68.1714 135.595 68.2947 135.595 68.4427C135.595 68.5907 135.709 68.714 135.856 68.7263Z" fill="white"/>
<path d="M137.903 68.7204C139.353 69.8173 141.105 70.4428 142.922 70.5124C143.287 70.5262 143.287 69.9589 142.922 69.9452C141.205 69.8725 139.553 69.2736 138.188 68.2297C137.899 68.0099 137.617 68.5026 137.903 68.7204Z" fill="white"/>
<path d="M13.2431 14.1795C12.0512 16.4743 11.5443 19.0633 11.7828 21.638C12.0104 23.9933 12.9859 26.5037 15.2706 27.542C16.278 28.0322 17.4455 28.0742 18.4856 27.6578C19.4964 27.222 20.2265 26.2367 20.1618 25.1062C20.1009 24.0365 19.1804 22.9472 18.0282 23.3397C16.8761 23.7323 16.5464 24.9845 16.6681 26.0758C16.9409 28.6117 18.7074 30.7099 20.7702 32.074C21.0764 32.2702 21.359 31.7854 21.0568 31.5852C19.463 30.5332 18.0616 29.0337 17.4767 27.173C17.2 26.2995 16.9468 25.0316 17.62 24.2681C17.8948 23.956 18.3423 23.7323 18.7604 23.8638C19.2177 24.009 19.5003 24.486 19.5769 24.9354C19.7417 25.9168 19.0862 26.8059 18.2029 27.1632C17.2935 27.4986 16.2846 27.4337 15.4256 26.9846C13.4629 26.015 12.5993 23.8618 12.3696 21.8029C12.0978 19.2755 12.5757 16.7239 13.7436 14.4661C13.9104 14.1423 13.4217 13.8557 13.2529 14.1795H13.2431Z" fill="#AFAA96"/>
<path d="M0.0611654 32.8728C2.11537 35.5188 4.5781 37.8205 7.35672 39.6914C8.14182 40.2214 8.95309 40.7153 9.79054 41.1733C10.1105 41.348 10.397 40.8593 10.0771 40.6826C7.17133 39.0876 4.53886 37.0389 2.27908 34.6138C1.64184 33.9268 1.036 33.213 0.461567 32.4724C0.237813 32.1839 -0.160626 32.5882 0.0690164 32.865L0.0611654 32.8728Z" fill="#AFAA96"/>
<path d="M153.941 39.3029C157.538 37.7594 160.992 35.902 164.263 33.7522C165.188 33.1464 166.096 32.5163 166.987 31.8621C167.278 31.6501 166.987 31.1575 166.701 31.3734C163.541 33.6835 160.183 35.711 156.667 37.4324C155.674 37.9178 154.67 38.3758 153.654 38.8063C153.321 38.9496 153.607 39.4383 153.941 39.295V39.3029Z" fill="#AFAA96"/>
<path d="M130.753 2.59541C129.201 5.99751 127.787 9.45261 126.512 12.9607C126.152 13.9565 125.803 14.9549 125.465 15.9559C125.35 16.3033 125.897 16.4505 126.013 16.107C127.191 12.5989 128.511 9.1425 129.974 5.73778C130.386 4.77995 130.809 3.82736 131.242 2.88001C131.393 2.55027 130.904 2.2637 130.753 2.59541Z" fill="#AFAA96"/>
<path d="M72.1119 2.53063L71.6899 13.0765C71.6742 13.4416 72.2414 13.4416 72.2571 13.0765L72.683 2.53063C72.6987 2.16556 72.1315 2.16752 72.1178 2.53063H72.1119Z" fill="#AFAA96"/>
<path d="M186.446 40.4295C185.609 43.5943 183.818 46.4246 181.316 48.5357C180.078 49.5915 178.684 50.4489 177.184 51.0775C175.839 51.6349 174.289 52.1413 172.823 51.8037C172.191 51.6565 171.61 51.3287 171.309 50.732C170.98 50.0765 171.164 49.2796 171.594 48.7163C172.681 47.2933 174.787 47.837 175.785 49.0656C176.876 50.4101 176.962 52.369 176.526 53.9725C176.091 55.5761 175.103 57.0109 173.888 58.1453C171.068 60.8009 167.121 61.586 163.423 62.1395L161.953 62.3476C161.594 62.3967 161.747 62.9364 162.104 62.8932C166.14 62.3358 170.473 61.7156 173.728 59.0482C175.149 57.9124 176.24 56.4166 176.888 54.7164C177.502 53.0108 177.549 50.9872 176.66 49.362C175.8 47.7918 173.792 46.7398 172.073 47.5955C170.617 48.3178 170.04 50.3787 171.233 51.5937C172.314 52.6928 174.177 52.5986 175.551 52.2355C177.245 51.7731 178.847 51.0265 180.291 50.0274C183.217 48.0307 185.433 45.1556 186.619 41.8172C186.76 41.4103 186.884 40.9981 186.99 40.5807C187.031 40.43 186.942 40.2744 186.792 40.2333C186.641 40.1921 186.485 40.2808 186.444 40.4315L186.446 40.4295Z" fill="#AFAA96"/>
<path d="M161.596 78.7306C165.155 78.9532 168.727 78.6657 172.204 77.8768C173.203 77.6491 174.191 77.3795 175.168 77.0681C175.514 76.9582 175.364 76.4106 175.017 76.5225C171.65 77.591 168.146 78.1681 164.614 78.2359C163.606 78.2556 162.598 78.2333 161.592 78.1692C161.227 78.1457 161.229 78.7129 161.592 78.7364L161.596 78.7306Z" fill="#AFAA96"/>
<path d="M155.266 91.5748C157.558 91.8613 159.885 91.6749 162.102 91.0272C162.452 90.9251 162.298 90.3775 161.953 90.4815C159.783 91.112 157.508 91.2917 155.266 91.0095C154.905 90.9624 154.909 91.5297 155.266 91.5748Z" fill="#AFAA96"/>
<path d="M65.2089 106.959C63.9412 112.427 63.4835 118.051 63.8507 123.652C63.9527 125.21 64.1189 126.762 64.3492 128.306C64.4022 128.667 64.9498 128.514 64.8968 128.157C64.0931 122.694 64.0931 117.142 64.8968 111.679C65.1219 110.146 65.4104 108.623 65.7624 107.11C65.8448 106.755 65.2992 106.604 65.2168 106.959H65.2089Z" fill="#AFAA96"/>
<path d="M57.6405 113.369C57.3346 116.772 57.4394 120.198 57.9526 123.576C58.0076 123.935 58.5532 123.782 58.5002 123.424C57.9987 120.098 57.9005 116.723 58.2078 113.373C58.2392 113.01 57.6739 113.012 57.6405 113.373V113.369Z" fill="#AFAA96"/>
<path d="M120.888 118.751L121.87 128.844L122.152 131.721C122.188 132.08 122.755 132.084 122.719 131.721L121.728 121.626L121.446 118.751C121.41 118.39 120.843 118.388 120.878 118.751H120.888Z" fill="#AFAA96"/>
<path d="M127.874 121.911L128.508 127.603C128.547 127.962 129.114 127.966 129.073 127.603L128.441 121.911C128.402 121.554 127.834 121.55 127.874 121.911Z" fill="#AFAA96"/>
</svg>
