<svg width="32" height="32" viewBox="0 0 32 32" fill="none" xmlns="http://www.w3.org/2000/svg">
<path fill-rule="evenodd" clip-rule="evenodd" d="M12.6047 5.68036L27.5789 13.1629C29.9181 14.3318 29.9181 17.668 27.5789 18.8369L12.6047 26.3195C9.94138 27.6503 7.07572 24.9136 8.28505 22.1943L10.4669 17.2881C10.509 17.1935 10.5462 17.0973 10.5786 16.9999L16 16.9999C16.5522 16.9999 17 16.5522 17 15.9999C17 15.4476 16.5522 14.9999 16 14.9999L10.5786 14.9999C10.5462 14.9025 10.509 14.8063 10.4669 14.7117L8.28505 9.80558C7.07572 7.08624 9.94139 4.34953 12.6047 5.68036ZM1.66663 13.3333C1.66663 12.781 2.11434 12.3333 2.66663 12.3333H5.33329C5.88558 12.3333 6.33329 12.781 6.33329 13.3333C6.33329 13.8855 5.88558 14.3333 5.33329 14.3333H2.66663C2.11434 14.3333 1.66663 13.8855 1.66663 13.3333ZM2.66663 17.6666C2.11434 17.6666 1.66663 18.1143 1.66663 18.6666C1.66663 19.2189 2.11434 19.6666 2.66663 19.6666H5.33329C5.88558 19.6666 6.33329 19.2189 6.33329 18.6666C6.33329 18.1143 5.88558 17.6666 5.33329 17.6666H2.66663Z" fill="#A6A39D"/>
</svg>
