<svg width="32" height="32" viewBox="0 0 32 32" fill="none" xmlns="http://www.w3.org/2000/svg">
<path d="M25.6766 9.81411C24.0486 9.81411 22.5693 10.4346 21.4485 11.4453C20.3299 13.2259 18.354 14.4129 16.096 14.4129C14.1788 14.4129 12.4645 13.5566 11.3052 12.2094C11.2992 12.2159 11.2931 12.2219 11.2874 12.2287C10.1296 10.7601 8.33878 9.81411 6.3234 9.81411C2.83096 9.81411 0 12.6453 0 16.1375C0 19.63 2.83096 22.4609 6.3234 22.4609C8.2496 22.4609 9.97198 21.5966 11.1315 20.238C11.1615 20.2757 11.1875 20.3162 11.218 20.3531C12.3778 18.9488 14.1321 18.0537 16.096 18.0537C18.0622 18.0537 19.8188 18.9515 20.9784 20.3591C22.1359 21.6466 23.8091 22.4609 25.6766 22.4609C29.1688 22.4609 32 19.63 32 16.1375C32 12.6453 29.1688 9.81411 25.6766 9.81411Z" fill="#100F0D"/>
<path d="M11.4014 5.59872C11.4014 3.05876 13.4602 0.999931 16.0002 0.999931C18.5401 0.999931 20.599 3.05876 20.599 5.59872C20.599 8.13843 18.5401 10.1973 16.0002 10.1973C13.4602 10.1973 11.4014 8.13843 11.4014 5.59872Z" fill="#100F0D"/>
<path d="M11.4014 27.0597C11.4014 24.5197 13.4602 22.4609 16.0002 22.4609C18.5401 22.4609 20.599 24.5197 20.599 27.0597C20.599 29.5994 18.5401 31.6584 16.0002 31.6584C13.4602 31.6584 11.4014 29.5994 11.4014 27.0597Z" fill="#100F0D"/>
</svg>
