<svg width="36" height="36" viewBox="0 0 36 36" fill="none" xmlns="http://www.w3.org/2000/svg">
<path d="M28.1939 25.8061C28.3512 25.9629 28.476 26.1492 28.5612 26.3543C28.6464 26.5594 28.6902 26.7793 28.6902 27.0014C28.6902 27.2235 28.6464 27.4434 28.5612 27.6485C28.476 27.8537 28.3512 28.0399 28.1939 28.1967C28.035 28.3542 24.2564 32.0653 18 32.0653C13.2595 32.0653 9.65391 29.61 7.3125 27.3037V29.25C7.3125 29.6975 7.13471 30.1268 6.81824 30.4432C6.50178 30.7597 6.07255 30.9375 5.625 30.9375C5.17745 30.9375 4.74822 30.7597 4.43176 30.4432C4.11529 30.1268 3.9375 29.6975 3.9375 29.25V22.5C3.9375 22.0524 4.11529 21.6232 4.43176 21.3068C4.74822 20.9903 5.17745 20.8125 5.625 20.8125H12.375C12.8226 20.8125 13.2518 20.9903 13.5682 21.3068C13.8847 21.6232 14.0625 22.0524 14.0625 22.5C14.0625 22.9476 13.8847 23.3768 13.5682 23.6932C13.2518 24.0097 12.8226 24.1875 12.375 24.1875H9.01688C10.8591 26.2012 13.95 28.6875 18 28.6875C22.8698 28.6875 25.778 25.8356 25.8061 25.8061C25.9628 25.6492 26.1489 25.5247 26.3538 25.4398C26.5586 25.3549 26.7782 25.3112 27 25.3112C27.2218 25.3112 27.4414 25.3549 27.6462 25.4398C27.8511 25.5247 28.0372 25.6492 28.1939 25.8061ZM30.375 5.0625C29.9274 5.0625 29.4982 5.24029 29.1818 5.55676C28.8653 5.87322 28.6875 6.30245 28.6875 6.75V8.69906C26.3461 6.39281 22.7405 3.9375 18 3.9375C11.7478 3.9375 7.965 7.64859 7.80609 7.80609C7.48908 8.12311 7.31098 8.55308 7.31098 9.00141C7.31098 9.44974 7.48908 9.8797 7.80609 10.1967C8.12311 10.5137 8.55308 10.6918 9.00141 10.6918C9.44974 10.6918 9.8797 10.5137 10.1967 10.1967C10.222 10.1644 13.1302 7.3125 18 7.3125C22.05 7.3125 25.1409 9.79875 26.9831 11.8125H23.625C23.1774 11.8125 22.7482 11.9903 22.4318 12.3068C22.1153 12.6232 21.9375 13.0524 21.9375 13.5C21.9375 13.9476 22.1153 14.3768 22.4318 14.6932C22.7482 15.0097 23.1774 15.1875 23.625 15.1875H30.375C30.8226 15.1875 31.2518 15.0097 31.5682 14.6932C31.8847 14.3768 32.0625 13.9476 32.0625 13.5V6.75C32.0625 6.30245 31.8847 5.87322 31.5682 5.55676C31.2518 5.24029 30.8226 5.0625 30.375 5.0625Z" fill="#FFFBF2"/>
</svg>
